<svg width="20" height="21" viewBox="0 0 20 21" fill="none" xmlns="http://www.w3.org/2000/svg">
<path d="M5.03125 16.9531C6.40625 18.3281 8.0625 19.0156 10 19.0156C11.9375 19.0156 13.5781 18.3281 14.9219 16.9531C16.2969 15.5781 16.9844 13.9219 16.9844 11.9844C16.9844 10.0469 16.2969 8.40625 14.9219 7.0625C13.5781 5.6875 11.9375 5 10 5C8.0625 5 6.40625 5.6875 5.03125 7.0625C3.6875 8.40625 3.01562 10.0469 3.01562 11.9844C3.01562 13.9219 3.6875 15.5781 5.03125 16.9531ZM3.625 5.65625C5.375 3.875 7.5 2.98438 10 2.98438C12.5 2.98438 14.625 3.875 16.375 5.65625C18.125 7.40625 19 9.51562 19 11.9844C19 14.4531 18.125 16.5781 16.375 18.3594C14.625 20.1094 12.5 20.9844 10 20.9844C7.5 20.9844 5.375 20.1094 3.625 18.3594C1.875 16.5781 1 14.4531 1 11.9844C1 9.51562 1.875 7.40625 3.625 5.65625ZM10.5156 7.01562V12.2656L14.5 14.6094L13.75 15.8281L9.01562 13.0156V7.01562H10.5156ZM5.875 2.375L1.28125 6.21875L0.015625 4.71875L4.60938 0.875L5.875 2.375ZM19.9844 4.71875L18.7188 6.26562L14.125 2.375L15.3906 0.875L19.9844 4.71875Z" fill="#FEF2E8"/>
</svg>
