<svg xmlns="http://www.w3.org/2000/svg" xmlns:xlink="http://www.w3.org/1999/xlink" version="1.1" width="239.7721pt" height="251.20264pt" viewBox="0 0 239.7721 251.20264">
<defs>
<clipPath id="clip_0">
<path transform="matrix(1,0,0,-1,0,251.20264)" d="M11.432617 251.20264H188.3232V11.32431H11.432617V251.20264Z" fill-rule="evenodd"/>
</clipPath>
<clipPath id="clip_1">
<path transform="matrix(1,0,0,-1,0,251.20264)" d="M5.717285 245.48584H182.60787V5.607513H5.717285V245.48584Z" fill-rule="evenodd"/>
</clipPath>
<clipPath id="clip_2">
<path transform="matrix(1,0,0,-1,0,251.20264)" d="M0 239.87842H176.89058V.000092H0V239.87842Z" fill-rule="evenodd"/>
</clipPath>
<clipPath id="clip_3">
<path transform="matrix(1,0,0,-1,0,251.20264)" d="M62.88147 230.2417H239.77205V110.565H62.88147V230.2417Z" fill-rule="evenodd"/>
</clipPath>
<clipPath id="clip_4">
<path transform="matrix(1,0,0,-1,0,251.20264)" d="M57.166139 224.52588H234.05672V104.84918H57.166139V224.52588Z" fill-rule="evenodd"/>
</clipPath>
<clipPath id="clip_5">
<path transform="matrix(1,0,0,-1,0,251.20264)" d="M51.44983 218.80908H228.34041V99.132389H51.44983V218.80908Z" fill-rule="evenodd"/>
</clipPath>
<clipPath id="clip_6">
<path transform="matrix(1,0,0,-1,0,251.20264)" d="M116.23547 167.35987H204.9432V47.683168H116.23547V167.35987Z" fill-rule="evenodd"/>
</clipPath>
<clipPath id="clip_7">
<path transform="matrix(1,0,0,-1,0,251.20264)" d="M110.52014 161.64356H199.22788V41.966859H110.52014V161.64356Z" fill-rule="evenodd"/>
</clipPath>
<clipPath id="clip_8">
<path transform="matrix(1,0,0,-1,0,251.20264)" d="M104.80286 155.92725H193.51059V36.25055H104.80286V155.92725Z" fill-rule="evenodd"/>
</clipPath>
</defs>
<path transform="matrix(1,0,0,-1,11.432617,239.87842)" d="M0 239.87842H176.89058V.000092H0V239.87842Z" fill="#fef2e8"/>
<g clip-path="url(#clip_0)">
<path transform="matrix(1,0,0,-1,11.432617,239.87842)" d="M0 239.87842V241.87842H-2V239.87842H0ZM176.89058 239.87842H178.89058V241.87842H176.89058V239.87842ZM176.89058 .000092V-1.999908H178.89058V.000092H176.89058ZM0 .000092H-2V-1.999908H0V.000092ZM0 237.87842H176.89058V241.87842H0V237.87842ZM174.89058 239.87842V.000092H178.89058V239.87842H174.89058ZM176.89058 2.000092H0V-1.999908H176.89058V2.000092ZM2 .000092V239.87842H-2V.000092H2Z"/>
</g>
<path transform="matrix(1,0,0,-1,5.717285,245.59522)" d="M0 239.87842H176.89058V.000092H0V239.87842Z" fill="#fef2e8"/>
<g clip-path="url(#clip_1)">
<path transform="matrix(1,0,0,-1,5.717285,245.59522)" d="M0 239.87842V241.87842H-2V239.87842H0ZM176.89058 239.87842H178.89058V241.87842H176.89058V239.87842ZM176.89058 .000092V-1.999908H178.89058V.000092H176.89058ZM0 .000092H-2V-1.999908H0V.000092ZM0 237.87842H176.89058V241.87842H0V237.87842ZM174.89058 239.87842V.000092H178.89058V239.87842H174.89058ZM176.89058 2.000092H0V-1.999908H176.89058V2.000092ZM2 .000092V239.87842H-2V.000092H2Z"/>
</g>
<path transform="matrix(1,0,0,-1,0,251.20264)" d="M0 239.87842H176.89058V.000092H0V239.87842Z" fill="#fef2e8"/>
<g clip-path="url(#clip_2)">
<path transform="matrix(1,0,0,-1,0,251.20264)" d="M0 239.87842V241.87842H-2V239.87842H0ZM176.89058 239.87842H178.89058V241.87842H176.89058V239.87842ZM176.89058 .000092V-1.999908H178.89058V.000092H176.89058ZM0 .000092H-2V-1.999908H0V.000092ZM0 237.87842H176.89058V241.87842H0V237.87842ZM174.89058 239.87842V.000092H178.89058V239.87842H174.89058ZM176.89058 2.000092H0V-1.999908H176.89058V2.000092ZM2 .000092V239.87842H-2V.000092H2Z"/>
</g>
<path transform="matrix(1,0,0,-1,62.88147,140.6377)" d="M0 119.67676H176.89058V.000061H0V119.67676Z" fill="#fef2e8"/>
<g clip-path="url(#clip_3)">
<path transform="matrix(1,0,0,-1,62.88147,140.6377)" d="M0 119.67676V121.67676H-2V119.67676H0ZM176.89058 119.67676H178.89058V121.67676H176.89058V119.67676ZM176.89058 .000061V-1.999939H178.89058V.000061H176.89058ZM0 .000061H-2V-1.999939H0V.000061ZM0 117.67676H176.89058V121.67676H0V117.67676ZM174.89058 119.67676V.000061H178.89058V119.67676H174.89058ZM176.89058 2.000061H0V-1.999939H176.89058V2.000061ZM2 .000061V119.67676H-2V.000061H2Z"/>
</g>
<path transform="matrix(1,0,0,-1,57.166139,146.35352)" d="M0 119.67676H176.89058V.000061H0V119.67676Z" fill="#fef2e8"/>
<g clip-path="url(#clip_4)">
<path transform="matrix(1,0,0,-1,57.166139,146.35352)" d="M0 119.67676V121.67676H-2V119.67676H0ZM176.89058 119.67676H178.89058V121.67676H176.89058V119.67676ZM176.89058 .000061V-1.999939H178.89058V.000061H176.89058ZM0 .000061H-2V-1.999939H0V.000061ZM0 117.67676H176.89058V121.67676H0V117.67676ZM174.89058 119.67676V.000061H178.89058V119.67676H174.89058ZM176.89058 2.000061H0V-1.999939H176.89058V2.000061ZM2 .000061V119.67676H-2V.000061H2Z"/>
</g>
<path transform="matrix(1,0,0,-1,51.44983,152.07032)" d="M0 119.67676H176.89058V.000061H0V119.67676Z" fill="#fef2e8"/>
<g clip-path="url(#clip_5)">
<path transform="matrix(1,0,0,-1,51.44983,152.07032)" d="M0 119.67676V121.67676H-2V119.67676H0ZM176.89058 119.67676H178.89058V121.67676H176.89058V119.67676ZM176.89058 .000061V-1.999939H178.89058V.000061H176.89058ZM0 .000061H-2V-1.999939H0V.000061ZM0 117.67676H176.89058V121.67676H0V117.67676ZM174.89058 119.67676V.000061H178.89058V119.67676H174.89058ZM176.89058 2.000061H0V-1.999939H176.89058V2.000061ZM2 .000061V119.67676H-2V.000061H2Z"/>
</g>
<path transform="matrix(1,0,0,-1,116.23547,203.51953)" d="M0 119.67676H88.70773V.000061H0V119.67676Z" fill="#fef2e8"/>
<g clip-path="url(#clip_6)">
<path transform="matrix(1,0,0,-1,116.23547,203.51953)" d="M0 119.67676V121.67676H-2V119.67676H0ZM88.70773 119.67676H90.70773V121.67676H88.70773V119.67676ZM88.70773 .000061V-1.999939H90.70773V.000061H88.70773ZM0 .000061H-2V-1.999939H0V.000061ZM0 117.67676H88.70773V121.67676H0V117.67676ZM86.70773 119.67676V.000061H90.70773V119.67676H86.70773ZM88.70773 2.000061H0V-1.999939H88.70773V2.000061ZM2 .000061V119.67676H-2V.000061H2Z"/>
</g>
<path transform="matrix(1,0,0,-1,110.52014,209.23584)" d="M0 119.67676H88.70773V.000061H0V119.67676Z" fill="#fef2e8"/>
<g clip-path="url(#clip_7)">
<path transform="matrix(1,0,0,-1,110.52014,209.23584)" d="M0 119.67676V121.67676H-2V119.67676H0ZM88.70773 119.67676H90.70773V121.67676H88.70773V119.67676ZM88.70773 .000061V-1.999939H90.70773V.000061H88.70773ZM0 .000061H-2V-1.999939H0V.000061ZM0 117.67676H88.70773V121.67676H0V117.67676ZM86.70773 119.67676V.000061H90.70773V119.67676H86.70773ZM88.70773 2.000061H0V-1.999939H88.70773V2.000061ZM2 .000061V119.67676H-2V.000061H2Z"/>
</g>
<path transform="matrix(1,0,0,-1,104.80286,214.95215)" d="M0 119.67676H88.70773V.000061H0V119.67676Z" fill="#fef2e8"/>
<g clip-path="url(#clip_8)">
<path transform="matrix(1,0,0,-1,104.80286,214.95215)" d="M0 119.67676V121.67676H-2V119.67676H0ZM88.70773 119.67676H90.70773V121.67676H88.70773V119.67676ZM88.70773 .000061V-1.999939H90.70773V.000061H88.70773ZM0 .000061H-2V-1.999939H0V.000061ZM0 117.67676H88.70773V121.67676H0V117.67676ZM86.70773 119.67676V.000061H90.70773V119.67676H86.70773ZM88.70773 2.000061H0V-1.999939H88.70773V2.000061ZM2 .000061V119.67676H-2V.000061H2Z"/>
</g>
</svg>
