<svg width="24" height="24" viewBox="0 0 24 24" fill="none" xmlns="http://www.w3.org/2000/svg">
<path d="M5.26172 10.4766C7.13672 14.1094 9.89062 16.8633 13.5234 18.7383L16.2773 15.9844C16.668 15.5938 17.0977 15.4961 17.5664 15.6914C18.9727 16.1602 20.457 16.3945 22.0195 16.3945C22.3711 16.3945 22.6641 16.5117 22.8984 16.7461C23.1328 16.9805 23.25 17.2734 23.25 17.625V22.0195C23.25 22.3711 23.1328 22.6641 22.8984 22.8984C22.6641 23.1328 22.3711 23.25 22.0195 23.25C16.1602 23.25 11.1406 21.1797 6.96094 17.0391C2.82031 12.8594 0.75 7.83984 0.75 1.98047C0.75 1.62891 0.867188 1.33594 1.10156 1.10156C1.33594 0.867188 1.62891 0.75 1.98047 0.75H6.375C6.72656 0.75 7.01953 0.867188 7.25391 1.10156C7.48828 1.33594 7.60547 1.62891 7.60547 1.98047C7.60547 3.54297 7.83984 5.02734 8.30859 6.43359C8.46484 6.94141 8.36719 7.37109 8.01562 7.72266L5.26172 10.4766Z" fill="#FEF2E8"/>
</svg>
