<svg width="18" height="28" viewBox="0 0 18 28" fill="none" xmlns="http://www.w3.org/2000/svg">
<path d="M15.2695 22.7305V5.26953H2.73047V22.7305H15.2695ZM15.2695 0.289062C15.9336 0.289062 16.5 0.542969 16.9688 1.05078C17.4766 1.51953 17.7305 2.08594 17.7305 2.75V25.25C17.7305 25.9141 17.4766 26.5 16.9688 27.0078C16.5 27.5156 15.9336 27.7695 15.2695 27.7695H2.73047C2.06641 27.7695 1.48047 27.5156 0.972656 27.0078C0.503906 26.5 0.269531 25.9141 0.269531 25.25V2.75C0.269531 2.08594 0.503906 1.5 0.972656 0.992188C1.48047 0.484375 2.06641 0.230469 2.73047 0.230469L15.2695 0.289062Z" fill="#FEF2E8"/>
</svg>
