<svg width="20" height="21" viewBox="0 0 20 21" fill="none" xmlns="http://www.w3.org/2000/svg">
<path d="M14.2188 16.78L13.0938 11.9519L16.8438 8.71753L11.9219 8.29565L10 3.79565L8.07812 8.34253L3.15625 8.71753L6.90625 11.9519L5.78125 16.78L10 14.2488L14.2188 16.78ZM2.92188 3.74878C4.89062 1.78003 7.25 0.795654 10 0.795654C12.75 0.795654 15.0938 1.78003 17.0312 3.74878C19 5.68628 19.9844 8.03003 19.9844 10.78C19.9844 13.53 19 15.8894 17.0312 17.8582C15.0938 19.7957 12.75 20.7644 10 20.7644C7.25 20.7644 4.89062 19.7957 2.92188 17.8582C0.984375 15.8894 0.015625 13.53 0.015625 10.78C0.015625 8.03003 0.984375 5.68628 2.92188 3.74878Z" fill="#FEF2E8"/>
</svg>
