<svg width="1373" height="59" viewBox="0 0 1373 59" fill="none" xmlns="http://www.w3.org/2000/svg">
<mask id="path-1-outside-1_17_2" maskUnits="userSpaceOnUse" x="0" y="0" width="1373" height="59" fill="black">
<rect fill="white" width="1373" height="59"/>
<path d="M1 42.5178H7.45964V7.72635H1V4.82706H30.5382V1H33.4744V17.352H30.5382V9.87182C30.5382 9.56256 30.4011 9.23398 30.1271 8.88606C29.8922 8.53815 29.579 8.24822 29.1875 8.01628C28.796 7.78433 28.3654 7.66836 27.8956 7.66836H12.3925V22.2808H20.9074C25.7228 22.2808 29.5007 23.3052 32.2412 25.354C35.0208 27.4028 36.4106 30.2248 36.4106 33.8199C36.4106 37.4537 35.0208 40.295 32.2412 42.3438C29.5007 44.3927 25.7228 45.4171 20.9074 45.4171H1V42.5178ZM20.7313 42.5758C24.059 42.5758 26.6428 41.8026 28.4828 40.2564C30.362 38.7101 31.3016 36.5453 31.3016 33.762C31.3016 31.0173 30.362 28.8718 28.4828 27.3255C26.6428 25.7792 24.059 25.0061 20.7313 25.0061H12.3925V42.5758H20.7313Z"/>
<path d="M42.1912 44.4893H44.8338V47.0987C44.8338 48.413 45.147 49.6694 45.7734 50.8678C46.3998 52.0661 47.2219 53.0132 48.2398 53.7091C49.2968 54.4435 50.3734 54.8108 51.4696 54.8108C52.7615 54.8108 53.8186 54.3662 54.6407 53.4771C55.4628 52.6267 55.8739 51.4283 55.8739 49.882V48.9542C55.8739 48.3744 55.776 47.7558 55.5803 47.0987C55.3845 46.4415 55.0518 45.591 54.582 44.5473C54.4645 44.238 54.3275 43.9288 54.1709 43.6195C54.0143 43.2716 53.8381 42.9237 53.6424 42.5758L41.4278 19.0916H37.3171V16.4242H53.3488V19.0916H46.5955L56.6373 39.0387C56.7547 39.2706 56.8526 39.5219 56.9309 39.7925C57.0484 40.0631 57.1658 40.353 57.2833 40.6623C57.4007 40.9329 57.5377 41.3581 57.6943 41.9379C57.7726 41.5127 57.8509 41.1261 57.9292 40.7782C58.0467 40.4303 58.1837 40.0824 58.3403 39.7345L67.2663 19.0916H59.8084V16.4242H74.3719V19.0916H70.2025L60.3369 41.648C60.2978 41.6867 60.2586 41.7447 60.2195 41.822C60.2195 41.8606 60.2195 41.9186 60.2195 41.9959C59.828 42.9237 59.5539 43.7548 59.3973 44.4893C59.2407 45.2238 59.1624 46.0356 59.1624 46.9247V48.1424C59.1624 49.998 58.8297 51.6409 58.1641 53.0712C57.4986 54.5402 56.5786 55.6612 55.4041 56.4344C54.2296 57.2075 52.879 57.5941 51.3521 57.5941C50.4517 57.5941 49.5709 57.4588 48.7096 57.1882C47.8483 56.9176 47.0653 56.5504 46.3606 56.0865C45.8125 55.7386 45.3036 55.3133 44.8338 54.8108V58H42.1912V44.4893Z"/>
<path d="M74.8495 42.7497H80.1934V20.1353L79.6062 19.0916H74.6146V16.4242H84.7739L96.9885 39.6765L108.205 16.4242H119.01V19.0916H113.607V42.7497H119.01V45.4171H104.035V42.7497H109.379V20.2513H109.321L97.3408 45.4171H95.1093L82.8947 21.9329V42.7497H88.5322V45.4171H74.8495V42.7497Z"/>
<path d="M133.991 46.0549C131.016 46.0549 128.706 45.3591 127.062 43.9674C125.417 42.5371 124.595 40.6623 124.595 38.3428C124.595 35.2889 125.907 33.1048 128.53 31.7904C131.153 30.4761 134.578 29.6836 138.806 29.413C140.607 29.297 142.095 29.1038 143.269 28.8332C144.483 28.5626 145.403 28.176 146.029 27.6734C146.695 27.1709 147.028 26.5331 147.028 25.7599C147.028 23.4405 146.303 21.6043 144.855 20.2513C143.446 18.8983 141.606 18.2218 139.335 18.2218C138.043 18.2218 136.673 18.531 135.224 19.1495C133.815 19.7681 132.601 20.5799 131.583 21.5849C130.605 22.59 130.115 23.6531 130.115 24.7742V26.8616H127.531V14.5107H130.115V18.9176C130.546 18.4924 131.055 18.1251 131.642 17.8159C133.051 17.1587 134.363 16.6755 135.577 16.3662C136.829 16.0183 138.141 15.8444 139.511 15.8444C143.152 15.8444 146.029 16.8881 148.143 18.9756C150.258 21.0631 151.315 23.885 151.315 27.4415V42.7497H156.247V45.4171H147.204V38.5168C146.186 40.8362 144.483 42.6724 142.095 44.0254C139.707 45.3784 137.006 46.0549 133.991 46.0549ZM135.459 43.3876C137.612 43.3876 139.589 42.9044 141.39 41.9379C143.191 40.9329 144.6 39.5992 145.618 37.9369C146.636 36.236 147.145 34.3805 147.145 32.3703V29.413C146.597 29.9542 145.736 30.3794 144.561 30.6887C143.426 30.998 141.919 31.2492 140.04 31.4425C136.203 31.7518 133.404 32.4283 131.642 33.472C129.88 34.5158 128.999 36.0427 128.999 38.0529C128.999 39.7538 129.587 41.0682 130.761 41.9959C131.936 42.9237 133.502 43.3876 135.459 43.3876Z"/>
<path d="M160.465 42.7497H165.868V19.0916H160.465V16.4242H182.075V13.4669H184.835V27.3835H182.134V21.0051C182.134 20.7345 182.017 20.4639 181.782 20.1933C181.547 19.884 181.273 19.6328 180.96 19.4395C180.646 19.2075 180.353 19.0916 180.079 19.0916H170.154V42.7497H177.143V45.4171H160.465V42.7497Z"/>
<path d="M200.854 46.0549C197.878 46.0549 195.569 45.3591 193.924 43.9674C192.28 42.5371 191.458 40.6623 191.458 38.3428C191.458 35.2889 192.769 33.1048 195.392 31.7904C198.015 30.4761 201.441 29.6836 205.669 29.413C207.47 29.297 208.958 29.1038 210.132 28.8332C211.346 28.5626 212.266 28.176 212.892 27.6734C213.558 27.1709 213.891 26.5331 213.891 25.7599C213.891 23.4405 213.166 21.6043 211.718 20.2513C210.308 18.8983 208.468 18.2218 206.198 18.2218C204.906 18.2218 203.536 18.531 202.087 19.1495C200.678 19.7681 199.464 20.5799 198.446 21.5849C197.467 22.59 196.978 23.6531 196.978 24.7742V26.8616H194.394V14.5107H196.978V18.9176C197.409 18.4924 197.918 18.1251 198.505 17.8159C199.914 17.1587 201.226 16.6755 202.439 16.3662C203.692 16.0183 205.004 15.8444 206.374 15.8444C210.015 15.8444 212.892 16.8881 215.006 18.9756C217.12 21.0631 218.177 23.885 218.177 27.4415V42.7497H223.11V45.4171H214.067V38.5168C213.049 40.8362 211.346 42.6724 208.958 44.0254C206.57 45.3784 203.868 46.0549 200.854 46.0549ZM202.322 43.3876C204.475 43.3876 206.452 42.9044 208.253 41.9379C210.054 40.9329 211.463 39.5992 212.481 37.9369C213.499 36.236 214.008 34.3805 214.008 32.3703V29.413C213.46 29.9542 212.599 30.3794 211.424 30.6887C210.289 30.998 208.782 31.2492 206.902 31.4425C203.066 31.7518 200.267 32.4283 198.505 33.472C196.743 34.5158 195.862 36.0427 195.862 38.0529C195.862 39.7538 196.449 41.0682 197.624 41.9959C198.798 42.9237 200.364 43.3876 202.322 43.3876Z"/>
<path d="M249.232 19.0916H244.358V16.4242H258.921V19.0916H253.519V39.0966L270.901 16.4242H279.768V19.0916H274.366V42.7497H279.768V45.4171H264.148V43.0397H270.079V21.6429L251.522 46.1129H249.232V19.0916Z"/>
<path d="M301.185 42.7497H306.529V20.1353L305.941 19.0916H300.95V16.4242H311.109L323.324 39.6765L334.54 16.4242H345.345V19.0916H339.942V42.7497H345.345V45.4171H330.37V42.7497H335.714V20.2513H335.656L323.676 45.4171H321.444L309.23 21.9329V42.7497H314.867V45.4171H301.185V42.7497Z"/>
<path d="M360.326 46.0549C357.351 46.0549 355.041 45.3591 353.397 43.9674C351.752 42.5371 350.93 40.6623 350.93 38.3428C350.93 35.2889 352.242 33.1048 354.865 31.7904C357.488 30.4761 360.913 29.6836 365.141 29.413C366.942 29.297 368.43 29.1038 369.604 28.8332C370.818 28.5626 371.738 28.176 372.365 27.6734C373.03 27.1709 373.363 26.5331 373.363 25.7599C373.363 23.4405 372.639 21.6043 371.19 20.2513C369.781 18.8983 367.941 18.2218 365.67 18.2218C364.378 18.2218 363.008 18.531 361.559 19.1495C360.15 19.7681 358.936 20.5799 357.918 21.5849C356.94 22.59 356.45 23.6531 356.45 24.7742V26.8616H353.866V14.5107H356.45V18.9176C356.881 18.4924 357.39 18.1251 357.977 17.8159C359.387 17.1587 360.698 16.6755 361.912 16.3662C363.164 16.0183 364.476 15.8444 365.846 15.8444C369.487 15.8444 372.365 16.8881 374.479 18.9756C376.593 21.0631 377.65 23.885 377.65 27.4415V42.7497H382.582V45.4171H373.539V38.5168C372.521 40.8362 370.818 42.6724 368.43 44.0254C366.042 45.3784 363.341 46.0549 360.326 46.0549ZM361.794 43.3876C363.947 43.3876 365.924 42.9044 367.725 41.9379C369.526 40.9329 370.936 39.5992 371.953 37.9369C372.971 36.236 373.48 34.3805 373.48 32.3703V29.413C372.932 29.9542 372.071 30.3794 370.896 30.6887C369.761 30.998 368.254 31.2492 366.375 31.4425C362.538 31.7518 359.739 32.4283 357.977 33.472C356.215 34.5158 355.335 36.0427 355.335 38.0529C355.335 39.7538 355.922 41.0682 357.096 41.9959C358.271 42.9237 359.837 43.3876 361.794 43.3876Z"/>
<path d="M392.907 42.7497H399.661V19.0916H391.557C391.322 19.0916 391.067 19.2075 390.793 19.4395C390.558 19.6328 390.343 19.884 390.147 20.1933C389.952 20.4639 389.854 20.7345 389.854 21.0051V27.3835H387.152V13.4669H389.795V16.4242H413.813V13.4669H416.456V27.3835H413.754V21.0051C413.754 20.7345 413.656 20.4639 413.461 20.1933C413.265 19.884 413.03 19.6328 412.756 19.4395C412.521 19.2075 412.286 19.0916 412.051 19.0916H403.947L404.006 42.7497H410.759V45.4171H392.907V42.7497Z"/>
<path d="M448.042 42.6338C447.181 43.4069 446.006 44.1221 444.518 44.7792C443.54 45.1658 442.502 45.4557 441.406 45.649C440.31 45.881 439.174 45.9969 438 45.9969C435.142 45.9969 432.558 45.3784 430.248 44.1414C427.978 42.9044 426.177 41.1455 424.846 38.8647C423.554 36.5839 422.908 33.9552 422.908 30.9786C422.908 28.0793 423.554 25.4893 424.846 23.2085C426.177 20.8891 427.978 19.0916 430.248 17.8159C432.519 16.5015 435.064 15.8444 437.883 15.8444C440.78 15.8444 443.344 16.4822 445.575 17.7579C447.846 19.0336 449.608 20.8118 450.861 23.0926C452.113 25.3733 452.74 27.9827 452.74 30.9207C452.74 31.1139 452.74 31.3266 452.74 31.5585C452.74 31.7518 452.74 31.9644 452.74 32.1963H427.371C427.488 34.4385 428.037 36.4293 429.015 38.1689C429.994 39.8698 431.266 41.2035 432.832 42.1699C434.398 43.0977 436.16 43.5615 438.117 43.5615C439.644 43.5615 441.152 43.233 442.639 42.5758C444.166 41.88 445.399 41.0102 446.339 39.9664C447.318 38.9227 447.807 37.8983 447.807 36.8932V35.7335H450.684V46.5188H448.042V42.6338ZM448.159 29.7029C448.042 27.3835 447.533 25.3733 446.632 23.6724C445.732 21.9329 444.518 20.6185 442.992 19.7294C441.504 18.8016 439.781 18.3377 437.824 18.3377C435.906 18.3377 434.183 18.821 432.656 19.7874C431.129 20.7538 429.896 22.1068 428.957 23.8464C428.017 25.5473 427.488 27.4995 427.371 29.7029H448.159Z"/>
<path d="M459.512 54.3469H464.856V19.0916H459.512V16.4242H469.026V22.9766C470.004 20.7345 471.453 18.9949 473.371 17.7579C475.329 16.4822 477.599 15.8444 480.183 15.8444C482.767 15.8444 485.096 16.5015 487.171 17.8159C489.285 19.0916 490.93 20.8891 492.104 23.2085C493.318 25.4893 493.924 28.06 493.924 30.9207C493.924 33.7813 493.318 36.352 492.104 38.6328C490.89 40.9135 489.246 42.7111 487.171 44.0254C485.096 45.3398 482.767 45.9969 480.183 45.9969C477.678 45.9969 475.466 45.3784 473.547 44.1414C471.629 42.8657 470.18 41.1455 469.202 38.9807V54.4049H477.482V57.0142H459.512V54.3469ZM479.244 43.1556C481.123 43.1556 482.826 42.6531 484.353 41.648C485.879 40.6429 487.073 39.2126 487.935 37.3571C488.835 35.4629 489.285 33.3174 489.285 30.9207C489.285 28.5239 488.835 26.3978 487.935 24.5422C487.073 22.648 485.879 21.1984 484.353 20.1933C482.826 19.1882 481.123 18.6857 479.244 18.6857C477.325 18.6857 475.583 19.2269 474.017 20.3093C472.451 21.353 471.218 22.822 470.317 24.7162C469.456 26.5717 469.026 28.6399 469.026 30.9207C469.026 33.2014 469.456 35.2889 470.317 37.1831C471.218 39.0387 472.451 40.5076 474.017 41.59C475.583 42.6338 477.325 43.1556 479.244 43.1556Z"/>
<path d="M504.872 19.0916H499.997V16.4242H514.561V19.0916H509.158V39.0966L526.541 16.4242H535.408V19.0916H530.005V42.7497H535.408V45.4171H519.787V43.0397H525.719V21.6429L507.162 46.1129H504.872V19.0916Z"/>
<path d="M550.365 46.0549C547.389 46.0549 545.08 45.3591 543.435 43.9674C541.791 42.5371 540.969 40.6623 540.969 38.3428C540.969 35.2889 542.28 33.1048 544.903 31.7904C547.526 30.4761 550.952 29.6836 555.18 29.413C556.981 29.297 558.469 29.1038 559.643 28.8332C560.857 28.5626 561.777 28.176 562.403 27.6734C563.069 27.1709 563.401 26.5331 563.401 25.7599C563.401 23.4405 562.677 21.6043 561.229 20.2513C559.819 18.8983 557.979 18.2218 555.709 18.2218C554.417 18.2218 553.046 18.531 551.598 19.1495C550.189 19.7681 548.975 20.5799 547.957 21.5849C546.978 22.59 546.489 23.6531 546.489 24.7742V26.8616H543.905V14.5107H546.489V18.9176C546.92 18.4924 547.428 18.1251 548.016 17.8159C549.425 17.1587 550.737 16.6755 551.95 16.3662C553.203 16.0183 554.515 15.8444 555.885 15.8444C559.526 15.8444 562.403 16.8881 564.517 18.9756C566.631 21.0631 567.688 23.885 567.688 27.4415V42.7497H572.621V45.4171H563.578V38.5168C562.56 40.8362 560.857 42.6724 558.469 44.0254C556.081 45.3784 553.379 46.0549 550.365 46.0549ZM551.833 43.3876C553.986 43.3876 555.963 42.9044 557.764 41.9379C559.565 40.9329 560.974 39.5992 561.992 37.9369C563.01 36.236 563.519 34.3805 563.519 32.3703V29.413C562.971 29.9542 562.109 30.3794 560.935 30.6887C559.8 30.998 558.292 31.2492 556.413 31.4425C552.577 31.7518 549.777 32.4283 548.016 33.472C546.254 34.5158 545.373 36.0427 545.373 38.0529C545.373 39.7538 545.96 41.0682 547.135 41.9959C548.309 42.9237 549.875 43.3876 551.833 43.3876Z"/>
<path d="M578.835 45.9969C578.17 45.9969 577.543 45.9196 576.956 45.765C576.369 45.649 575.88 45.4557 575.488 45.1851V40.7782H575.605C576.114 41.1261 576.643 41.3967 577.191 41.59C577.778 41.7833 578.405 41.88 579.07 41.88C580.714 41.88 582.006 40.8362 582.946 38.7487C583.651 37.2024 584.16 35.2503 584.473 32.8922C584.786 30.5341 585.08 27.5768 585.354 24.0203C585.393 23.8657 585.412 23.7111 585.412 23.5565C585.412 23.4018 585.432 23.2279 585.471 23.0346C585.471 22.7253 585.471 22.4161 585.471 22.1068C585.471 21.7589 585.471 21.411 585.471 21.0631C585.471 20.7538 585.471 20.4446 585.471 20.1353C585.471 19.7874 585.452 19.4395 585.412 19.0916H580.773V16.4242H610.135V19.0916H604.733V42.7497H610.135V45.4171H594.221V42.7497H600.387V19.1495H588.701L588.466 21.469C588.466 21.5076 588.466 21.5463 588.466 21.5849C588.466 21.6236 588.466 21.6623 588.466 21.7009C588.035 26.3398 587.585 30.1475 587.115 33.1241C586.685 36.0621 586.019 38.5361 585.119 40.5463C584.453 42.4018 583.592 43.7742 582.535 44.6633C581.517 45.5524 580.284 45.9969 578.835 45.9969Z"/>
<path d="M614.514 42.7497H619.916V19.0916H614.514V16.4242H630.017V19.0916H624.203V28.1953H630.252C633.932 28.1953 636.809 28.9685 638.884 30.5147C640.998 32.0224 642.055 34.1099 642.055 36.7772C642.055 39.4832 640.998 41.6094 638.884 43.1556C636.77 44.6633 633.893 45.4171 630.252 45.4171H614.514V42.7497ZM630.134 42.8077C632.483 42.8077 634.304 42.2665 635.596 41.1841C636.927 40.1017 637.592 38.5941 637.592 36.6612C637.592 34.767 636.927 33.2787 635.596 32.1963C634.304 31.0753 632.483 30.5147 630.134 30.5147H624.203V42.8077H630.134ZM642.584 42.7497H648.75V19.0916H642.584V16.4242H653.037V42.7497H659.203V45.4171H642.584V42.7497Z"/>
<path d="M678.752 42.5758L683.45 42.6918C684.311 39.3286 685.055 36.0427 685.681 32.8342C686.308 29.587 686.738 26.3011 686.973 22.9766C686.973 22.7447 686.973 22.5127 686.973 22.2808C687.012 22.0488 687.032 21.7976 687.032 21.527C687.032 21.2177 686.993 20.8698 686.914 20.4832C686.875 20.058 686.836 19.5941 686.797 19.0916H681.571V16.4242H712.107V19.0916H706.763V42.7497H712.166V53.2452H709.464V46.9827C709.464 46.7508 709.367 46.5188 709.171 46.2869C709.014 46.0549 708.799 45.8423 708.525 45.649C708.29 45.4944 708.016 45.4171 707.703 45.4171H683.274C683 45.4171 682.706 45.4944 682.393 45.649C682.08 45.8423 681.805 46.0549 681.571 46.2869C681.336 46.5188 681.199 46.7314 681.16 46.9247V53.2452H678.458L678.752 42.5758ZM702.418 42.8077V19.0336H690.262C689.792 23.5178 689.205 27.6928 688.5 31.5585C687.795 35.3856 686.973 39.1353 686.034 42.8077H702.418Z"/>
<path d="M718.468 45.9969C717.802 45.9969 717.176 45.9196 716.589 45.765C716.001 45.649 715.512 45.4557 715.12 45.1851V40.7782H715.238C715.747 41.1261 716.275 41.3967 716.823 41.59C717.411 41.7833 718.037 41.88 718.703 41.88C720.347 41.88 721.639 40.8362 722.578 38.7487C723.283 37.2024 723.792 35.2503 724.105 32.8922C724.418 30.5341 724.712 27.5768 724.986 24.0203C725.025 23.8657 725.045 23.7111 725.045 23.5565C725.045 23.4018 725.064 23.2279 725.103 23.0346C725.103 22.7253 725.103 22.4161 725.103 22.1068C725.103 21.7589 725.103 21.411 725.103 21.0631C725.103 20.7538 725.103 20.4446 725.103 20.1353C725.103 19.7874 725.084 19.4395 725.045 19.0916H720.406V16.4242H749.768V19.0916H744.365V42.7497H749.768V45.4171H733.853V42.7497H740.019V19.1495H728.333L728.098 21.469C728.098 21.5076 728.098 21.5463 728.098 21.5849C728.098 21.6236 728.098 21.6623 728.098 21.7009C727.668 26.3398 727.218 30.1475 726.748 33.1241C726.317 36.0621 725.652 38.5361 724.751 40.5463C724.086 42.4018 723.224 43.7742 722.167 44.6633C721.149 45.5524 719.916 45.9969 718.468 45.9969Z"/>
<path d="M749.742 42.7497H753.911L761.604 32.7762C759.49 32.235 757.846 31.2686 756.671 29.8769C755.497 28.4852 754.91 26.8037 754.91 24.8321C754.91 22.1648 755.927 20.0966 757.963 18.6277C759.999 17.1587 762.857 16.4242 766.537 16.4242H783.626V19.0916H778.223V42.7497H783.626V45.4171H769.297V42.7497H773.877V33.588H766.83C766.674 33.588 766.517 33.588 766.361 33.588C766.204 33.588 766.047 33.588 765.891 33.588L759.02 42.7497H764.247V45.4171H749.742V42.7497ZM773.877 31.1526V18.8016H766.83C764.521 18.8016 762.7 19.3622 761.369 20.4832C760.038 21.5656 759.372 23.0539 759.372 24.9481C759.372 26.881 760.038 28.4079 761.369 29.529C762.7 30.6114 764.521 31.1526 766.83 31.1526H773.877Z"/>
<path d="M838.069 47.0407C838.069 46.8088 837.971 46.5575 837.775 46.2869C837.619 46.0549 837.404 45.8423 837.13 45.649C836.895 45.4944 836.621 45.4171 836.307 45.4171H805.066V42.7497H810.469V19.0916H805.066V16.4242H814.756V42.7497H831.257V19.0916H824.856V16.4242H841.005V19.0916H835.603V42.7497H840.77V53.3032H838.069V47.0407Z"/>
<path d="M850.139 19.0916H845.265V16.4242H859.828V19.0916H854.426V39.0966L871.808 16.4242H880.675V19.0916H875.273V42.7497H880.675V45.4171H865.055V43.0397H870.986V21.6429L852.429 46.1129H850.139V19.0916Z"/>
<path d="M901.622 54.3469H908.669V38.8647C907.768 41.0682 906.457 42.8077 904.734 44.0834C903.051 45.3204 901.074 45.939 898.803 45.939C896.532 45.939 894.477 45.3011 892.637 44.0254C890.797 42.7111 889.348 40.9135 888.291 38.6328C887.234 36.3133 886.706 33.7426 886.706 30.9207C886.706 28.06 887.234 25.4893 888.291 23.2085C889.348 20.9278 890.797 19.1495 892.637 17.8739C894.477 16.5595 896.532 15.9023 898.803 15.9023C901.074 15.9023 903.051 16.5402 904.734 17.8159C906.457 19.0529 907.768 20.7538 908.669 22.9186V7.4944H901.622V4.82706H912.955V22.9186C913.817 20.7538 915.109 19.0529 916.831 17.8159C918.554 16.5402 920.55 15.9023 922.821 15.9023C925.092 15.9023 927.147 16.5595 928.987 17.8739C930.827 19.1495 932.276 20.9278 933.333 23.2085C934.39 25.4893 934.918 28.06 934.918 30.9207C934.918 33.7426 934.39 36.3133 933.333 38.6328C932.276 40.9135 930.827 42.7111 928.987 44.0254C927.147 45.3011 925.092 45.939 922.821 45.939C920.55 45.939 918.554 45.3204 916.831 44.0834C915.109 42.8077 913.817 41.0682 912.955 38.8647V54.3469H920.002V57.0142H901.622V54.3469ZM899.919 43.1556C901.602 43.1556 903.109 42.6338 904.441 41.59C905.811 40.5076 906.887 39.0387 907.67 37.1831C908.453 35.2889 908.845 33.2014 908.845 30.9207C908.845 28.6399 908.453 26.5717 907.67 24.7162C906.887 22.822 905.811 21.353 904.441 20.3093C903.109 19.2269 901.602 18.6857 899.919 18.6857C898.274 18.6857 896.787 19.1882 895.456 20.1933C894.164 21.1984 893.146 22.6287 892.402 24.4842C891.658 26.3398 891.286 28.4852 891.286 30.9207C891.286 33.3561 891.658 35.5015 892.402 37.3571C893.146 39.174 894.164 40.6043 895.456 41.648C896.787 42.6531 898.274 43.1556 899.919 43.1556ZM921.705 43.1556C923.35 43.1556 924.818 42.6531 926.11 41.648C927.441 40.6043 928.478 39.174 929.222 37.3571C929.966 35.5015 930.338 33.3561 930.338 30.9207C930.338 28.4852 929.966 26.3398 929.222 24.4842C928.478 22.6287 927.441 21.1984 926.11 20.1933C924.818 19.1882 923.35 18.6857 921.705 18.6857C920.022 18.6857 918.495 19.2269 917.125 20.3093C915.755 21.353 914.678 22.822 913.895 24.7162C913.151 26.5717 912.779 28.6399 912.779 30.9207C912.779 33.2014 913.151 35.2889 913.895 37.1831C914.678 39.0387 915.755 40.5076 917.125 41.59C918.495 42.6338 920.022 43.1556 921.705 43.1556Z"/>
<path d="M940.973 54.3469H946.317V19.0916H940.973V16.4242H950.487V22.9766C951.465 20.7345 952.914 18.9949 954.832 17.7579C956.79 16.4822 959.06 15.8444 961.644 15.8444C964.228 15.8444 966.557 16.5015 968.632 17.8159C970.746 19.0916 972.391 20.8891 973.565 23.2085C974.779 25.4893 975.385 28.06 975.385 30.9207C975.385 33.7813 974.779 36.352 973.565 38.6328C972.351 40.9135 970.707 42.7111 968.632 44.0254C966.557 45.3398 964.228 45.9969 961.644 45.9969C959.138 45.9969 956.927 45.3784 955.008 44.1414C953.09 42.8657 951.641 41.1455 950.663 38.9807V54.4049H958.943V57.0142H940.973V54.3469ZM960.704 43.1556C962.584 43.1556 964.287 42.6531 965.813 41.648C967.34 40.6429 968.534 39.2126 969.396 37.3571C970.296 35.4629 970.746 33.3174 970.746 30.9207C970.746 28.5239 970.296 26.3978 969.396 24.5422C968.534 22.648 967.34 21.1984 965.813 20.1933C964.287 19.1882 962.584 18.6857 960.704 18.6857C958.786 18.6857 957.044 19.2269 955.478 20.3093C953.912 21.353 952.679 22.822 951.778 24.7162C950.917 26.5717 950.487 28.6399 950.487 30.9207C950.487 33.2014 950.917 35.2889 951.778 37.1831C952.679 39.0387 953.912 40.5076 955.478 41.59C957.044 42.6338 958.786 43.1556 960.704 43.1556Z"/>
<path d="M998.841 45.9969C995.865 45.9969 993.184 45.3398 990.796 44.0254C988.407 42.7111 986.528 40.9135 985.158 38.6328C983.788 36.3133 983.103 33.7426 983.103 30.9207C983.103 28.06 983.788 25.4893 985.158 23.2085C986.528 20.9278 988.407 19.1302 990.796 17.8159C993.184 16.5015 995.865 15.8444 998.841 15.8444C1001.86 15.8444 1004.56 16.5015 1006.94 17.8159C1009.33 19.1302 1011.21 20.9471 1012.58 23.2665C1013.95 25.5473 1014.64 28.0987 1014.64 30.9207C1014.64 33.7426 1013.95 36.3133 1012.58 38.6328C1011.21 40.9135 1009.31 42.7111 1006.89 44.0254C1004.5 45.3398 1001.82 45.9969 998.841 45.9969ZM998.841 43.3296C1000.99 43.3296 1002.93 42.8271 1004.65 41.822C1006.38 40.7782 1007.71 39.3093 1008.65 37.4151C1009.59 35.5209 1010.06 33.3561 1010.06 30.9207C1010.06 28.4852 1009.59 26.3204 1008.65 24.4262C1007.71 22.532 1006.38 21.0631 1004.65 20.0193C1002.93 18.9756 1000.99 18.4537 998.841 18.4537C996.688 18.4537 994.75 18.9756 993.027 20.0193C991.344 21.0631 990.013 22.532 989.034 24.4262C988.094 26.3204 987.624 28.4852 987.624 30.9207C987.624 33.3561 988.094 35.5209 989.034 37.4151C990.013 39.3093 991.344 40.7782 993.027 41.822C994.75 42.8271 996.688 43.3296 998.841 43.3296Z"/>
<path d="M1020.68 42.7497H1026.08V19.0916H1020.68V16.4242H1037.36C1040.8 16.4242 1043.51 17.0814 1045.46 18.3957C1047.46 19.7101 1048.46 21.5463 1048.46 23.9044C1048.46 25.5666 1047.95 26.9583 1046.93 28.0793C1045.95 29.2004 1044.5 30.0315 1042.59 30.5727V30.9207C1044.86 31.3845 1046.6 32.2157 1047.81 33.414C1049.03 34.5738 1049.63 36.0621 1049.63 37.8789C1049.63 40.237 1048.63 42.0926 1046.64 43.4456C1044.64 44.7599 1041.84 45.4171 1038.24 45.4171H1020.68V42.7497ZM1038.18 42.8657C1040.41 42.8657 1042.14 42.4018 1043.35 41.4741C1044.6 40.5076 1045.23 39.1546 1045.23 37.4151C1045.23 35.7528 1044.58 34.4578 1043.29 33.53C1042.04 32.6022 1040.28 32.1384 1038.01 32.1384H1030.37V42.8657H1038.18ZM1036.95 29.645C1039.18 29.645 1040.92 29.2004 1042.17 28.3113C1043.47 27.3835 1044.11 26.0692 1044.11 24.3683C1044.11 22.6673 1043.51 21.353 1042.29 20.4252C1041.12 19.4588 1039.43 18.9756 1037.24 18.9756H1030.37V29.645H1036.95Z"/>
<path d="M1072.99 45.9969C1070.01 45.9969 1067.33 45.3398 1064.94 44.0254C1062.55 42.7111 1060.67 40.9135 1059.3 38.6328C1057.93 36.3133 1057.25 33.7426 1057.25 30.9207C1057.25 28.06 1057.93 25.4893 1059.3 23.2085C1060.67 20.9278 1062.55 19.1302 1064.94 17.8159C1067.33 16.5015 1070.01 15.8444 1072.99 15.8444C1076 15.8444 1078.7 16.5015 1081.09 17.8159C1083.48 19.1302 1085.36 20.9471 1086.73 23.2665C1088.1 25.5473 1088.78 28.0987 1088.78 30.9207C1088.78 33.7426 1088.1 36.3133 1086.73 38.6328C1085.36 40.9135 1083.46 42.7111 1081.03 44.0254C1078.64 45.3398 1075.96 45.9969 1072.99 45.9969ZM1072.99 43.3296C1075.14 43.3296 1077.08 42.8271 1078.8 41.822C1080.52 40.7782 1081.85 39.3093 1082.79 37.4151C1083.73 35.5209 1084.2 33.3561 1084.2 30.9207C1084.2 28.4852 1083.73 26.3204 1082.79 24.4262C1081.85 22.532 1080.52 21.0631 1078.8 20.0193C1077.08 18.9756 1075.14 18.4537 1072.99 18.4537C1070.83 18.4537 1068.9 18.9756 1067.17 20.0193C1065.49 21.0631 1064.16 22.532 1063.18 24.4262C1062.24 26.3204 1061.77 28.4852 1061.77 30.9207C1061.77 33.3561 1062.24 35.5209 1063.18 37.4151C1064.16 39.3093 1065.49 40.7782 1067.17 41.822C1068.9 42.8271 1070.83 43.3296 1072.99 43.3296Z"/>
<path d="M1099.7 19.0916H1094.83V16.4242H1109.39V19.0916H1103.99V39.0966L1121.37 16.4242H1130.24V19.0916H1124.84V42.7497H1130.24V45.4171H1114.62V43.0397H1120.55V21.6429L1101.99 46.1129H1099.7V19.0916ZM1112.56 12.3652C1110.49 12.3652 1108.65 11.9593 1107.04 11.1475C1105.48 10.297 1104.24 9.13733 1103.34 7.66836C1102.48 6.16073 1102.05 4.42116 1102.05 2.44964V1.92777H1104.58V2.39166C1104.58 4.40183 1105.28 5.96745 1106.69 7.08851C1108.1 8.17091 1110.06 8.71211 1112.56 8.71211C1115.11 8.71211 1117.08 8.15158 1118.49 7.03052C1119.9 5.90946 1120.61 4.36317 1120.61 2.39166V1.92777H1123.07V2.44964C1123.07 4.42116 1122.62 6.16073 1121.72 7.66836C1120.86 9.13733 1119.63 10.297 1118.02 11.1475C1116.46 11.9593 1114.64 12.3652 1112.56 12.3652Z"/>
<path d="M1151.65 42.7497H1157.06V19.0916H1151.65V16.4242H1187.59V19.0916H1182.19V42.7497H1187.59V45.4171H1172.15V42.7497H1177.85V19.0336H1161.34V42.7497H1167.04V45.4171H1151.65V42.7497Z"/>
<path d="M1218.8 42.6338C1217.94 43.4069 1216.77 44.1221 1215.28 44.7792C1214.3 45.1658 1213.26 45.4557 1212.17 45.649C1211.07 45.881 1209.94 45.9969 1208.76 45.9969C1205.9 45.9969 1203.32 45.3784 1201.01 44.1414C1198.74 42.9044 1196.94 41.1455 1195.61 38.8647C1194.32 36.5839 1193.67 33.9552 1193.67 30.9786C1193.67 28.0793 1194.32 25.4893 1195.61 23.2085C1196.94 20.8891 1198.74 19.0916 1201.01 17.8159C1203.28 16.5015 1205.83 15.8444 1208.64 15.8444C1211.54 15.8444 1214.11 16.4822 1216.34 17.7579C1218.61 19.0336 1220.37 20.8118 1221.62 23.0926C1222.87 25.3733 1223.5 27.9827 1223.5 30.9207C1223.5 31.1139 1223.5 31.3266 1223.5 31.5585C1223.5 31.7518 1223.5 31.9644 1223.5 32.1963H1198.13C1198.25 34.4385 1198.8 36.4293 1199.78 38.1689C1200.76 39.8698 1202.03 41.2035 1203.59 42.1699C1205.16 43.0977 1206.92 43.5615 1208.88 43.5615C1210.41 43.5615 1211.91 43.233 1213.4 42.5758C1214.93 41.88 1216.16 41.0102 1217.1 39.9664C1218.08 38.9227 1218.57 37.8983 1218.57 36.8932V35.7335H1221.45V46.5188H1218.8V42.6338ZM1218.92 29.7029C1218.8 27.3835 1218.29 25.3733 1217.39 23.6724C1216.49 21.9329 1215.28 20.6185 1213.75 19.7294C1212.27 18.8016 1210.54 18.3377 1208.59 18.3377C1206.67 18.3377 1204.94 18.821 1203.42 19.7874C1201.89 20.7538 1200.66 22.1068 1199.72 23.8464C1198.78 25.5473 1198.25 27.4995 1198.13 29.7029H1218.92Z"/>
<path d="M1243.84 42.9237H1250.94V33.472H1242.61C1238.96 33.472 1236.17 32.6989 1234.21 31.1526C1232.29 29.6063 1231.33 27.4608 1231.33 24.7162V19.0916H1225.93V16.4242H1235.56V24.8321C1235.56 26.8037 1236.19 28.3113 1237.44 29.355C1238.69 30.3988 1240.51 30.9207 1242.9 30.9207H1250.94V18.9176H1244.78V16.4242H1260.63V19.0916H1255.23V42.7497H1260.63V45.4171H1243.84V42.9237Z"/>
<path d="M1275.65 46.0549C1272.68 46.0549 1270.37 45.3591 1268.72 43.9674C1267.08 42.5371 1266.26 40.6623 1266.26 38.3428C1266.26 35.2889 1267.57 33.1048 1270.19 31.7904C1272.81 30.4761 1276.24 29.6836 1280.47 29.413C1282.27 29.297 1283.76 29.1038 1284.93 28.8332C1286.14 28.5626 1287.06 28.176 1287.69 27.6734C1288.36 27.1709 1288.69 26.5331 1288.69 25.7599C1288.69 23.4405 1287.96 21.6043 1286.52 20.2513C1285.11 18.8983 1283.27 18.2218 1281 18.2218C1279.7 18.2218 1278.33 18.531 1276.88 19.1495C1275.48 19.7681 1274.26 20.5799 1273.24 21.5849C1272.27 22.59 1271.78 23.6531 1271.78 24.7742V26.8616H1269.19V14.5107H1271.78V18.9176C1272.21 18.4924 1272.72 18.1251 1273.3 17.8159C1274.71 17.1587 1276.02 16.6755 1277.24 16.3662C1278.49 16.0183 1279.8 15.8444 1281.17 15.8444C1284.81 15.8444 1287.69 16.8881 1289.8 18.9756C1291.92 21.0631 1292.98 23.885 1292.98 27.4415V42.7497H1297.91V45.4171H1288.86V38.5168C1287.85 40.8362 1286.14 42.6724 1283.76 44.0254C1281.37 45.3784 1278.67 46.0549 1275.65 46.0549ZM1277.12 43.3876C1279.27 43.3876 1281.25 42.9044 1283.05 41.9379C1284.85 40.9329 1286.26 39.5992 1287.28 37.9369C1288.3 36.236 1288.81 34.3805 1288.81 32.3703V29.413C1288.26 29.9542 1287.4 30.3794 1286.22 30.6887C1285.09 30.998 1283.58 31.2492 1281.7 31.4425C1277.86 31.7518 1275.06 32.4283 1273.3 33.472C1271.54 34.5158 1270.66 36.0427 1270.66 38.0529C1270.66 39.7538 1271.25 41.0682 1272.42 41.9959C1273.6 42.9237 1275.16 43.3876 1277.12 43.3876Z"/>
<path d="M1308.23 42.7497H1314.99V19.0916H1306.88C1306.65 19.0916 1306.39 19.2075 1306.12 19.4395C1305.88 19.6328 1305.67 19.884 1305.47 20.1933C1305.28 20.4639 1305.18 20.7345 1305.18 21.0051V27.3835H1302.48V13.4669H1305.12V16.4242H1329.14V13.4669H1331.78V27.3835H1329.08V21.0051C1329.08 20.7345 1328.98 20.4639 1328.79 20.1933C1328.59 19.884 1328.36 19.6328 1328.08 19.4395C1327.85 19.2075 1327.61 19.0916 1327.38 19.0916H1319.27L1319.33 42.7497H1326.09V45.4171H1308.23V42.7497Z"/>
<path d="M1341.46 19.0916H1336.59V16.4242H1351.15V19.0916H1345.75V39.0966L1363.13 16.4242H1372V19.0916H1366.6V42.7497H1372V45.4171H1356.38V43.0397H1362.31V21.6429L1343.75 46.1129H1341.46V19.0916Z"/>
</mask>
<path d="M1 42.5178H7.45964V7.72635H1V4.82706H30.5382V1H33.4744V17.352H30.5382V9.87182C30.5382 9.56256 30.4011 9.23398 30.1271 8.88606C29.8922 8.53815 29.579 8.24822 29.1875 8.01628C28.796 7.78433 28.3654 7.66836 27.8956 7.66836H12.3925V22.2808H20.9074C25.7228 22.2808 29.5007 23.3052 32.2412 25.354C35.0208 27.4028 36.4106 30.2248 36.4106 33.8199C36.4106 37.4537 35.0208 40.295 32.2412 42.3438C29.5007 44.3927 25.7228 45.4171 20.9074 45.4171H1V42.5178ZM20.7313 42.5758C24.059 42.5758 26.6428 41.8026 28.4828 40.2564C30.362 38.7101 31.3016 36.5453 31.3016 33.762C31.3016 31.0173 30.362 28.8718 28.4828 27.3255C26.6428 25.7792 24.059 25.0061 20.7313 25.0061H12.3925V42.5758H20.7313Z" fill="#FEF2E8"/>
<path d="M42.1912 44.4893H44.8338V47.0987C44.8338 48.413 45.147 49.6694 45.7734 50.8678C46.3998 52.0661 47.2219 53.0132 48.2398 53.7091C49.2968 54.4435 50.3734 54.8108 51.4696 54.8108C52.7615 54.8108 53.8186 54.3662 54.6407 53.4771C55.4628 52.6267 55.8739 51.4283 55.8739 49.882V48.9542C55.8739 48.3744 55.776 47.7558 55.5803 47.0987C55.3845 46.4415 55.0518 45.591 54.582 44.5473C54.4645 44.238 54.3275 43.9288 54.1709 43.6195C54.0143 43.2716 53.8381 42.9237 53.6424 42.5758L41.4278 19.0916H37.3171V16.4242H53.3488V19.0916H46.5955L56.6373 39.0387C56.7547 39.2706 56.8526 39.5219 56.9309 39.7925C57.0484 40.0631 57.1658 40.353 57.2833 40.6623C57.4007 40.9329 57.5377 41.3581 57.6943 41.9379C57.7726 41.5127 57.8509 41.1261 57.9292 40.7782C58.0467 40.4303 58.1837 40.0824 58.3403 39.7345L67.2663 19.0916H59.8084V16.4242H74.3719V19.0916H70.2025L60.3369 41.648C60.2978 41.6867 60.2586 41.7447 60.2195 41.822C60.2195 41.8606 60.2195 41.9186 60.2195 41.9959C59.828 42.9237 59.5539 43.7548 59.3973 44.4893C59.2407 45.2238 59.1624 46.0356 59.1624 46.9247V48.1424C59.1624 49.998 58.8297 51.6409 58.1641 53.0712C57.4986 54.5402 56.5786 55.6612 55.4041 56.4344C54.2296 57.2075 52.879 57.5941 51.3521 57.5941C50.4517 57.5941 49.5709 57.4588 48.7096 57.1882C47.8483 56.9176 47.0653 56.5504 46.3606 56.0865C45.8125 55.7386 45.3036 55.3133 44.8338 54.8108V58H42.1912V44.4893Z" fill="#FEF2E8"/>
<path d="M74.8495 42.7497H80.1934V20.1353L79.6062 19.0916H74.6146V16.4242H84.7739L96.9885 39.6765L108.205 16.4242H119.01V19.0916H113.607V42.7497H119.01V45.4171H104.035V42.7497H109.379V20.2513H109.321L97.3408 45.4171H95.1093L82.8947 21.9329V42.7497H88.5322V45.4171H74.8495V42.7497Z" fill="#FEF2E8"/>
<path d="M133.991 46.0549C131.016 46.0549 128.706 45.3591 127.062 43.9674C125.417 42.5371 124.595 40.6623 124.595 38.3428C124.595 35.2889 125.907 33.1048 128.53 31.7904C131.153 30.4761 134.578 29.6836 138.806 29.413C140.607 29.297 142.095 29.1038 143.269 28.8332C144.483 28.5626 145.403 28.176 146.029 27.6734C146.695 27.1709 147.028 26.5331 147.028 25.7599C147.028 23.4405 146.303 21.6043 144.855 20.2513C143.446 18.8983 141.606 18.2218 139.335 18.2218C138.043 18.2218 136.673 18.531 135.224 19.1495C133.815 19.7681 132.601 20.5799 131.583 21.5849C130.605 22.59 130.115 23.6531 130.115 24.7742V26.8616H127.531V14.5107H130.115V18.9176C130.546 18.4924 131.055 18.1251 131.642 17.8159C133.051 17.1587 134.363 16.6755 135.577 16.3662C136.829 16.0183 138.141 15.8444 139.511 15.8444C143.152 15.8444 146.029 16.8881 148.143 18.9756C150.258 21.0631 151.315 23.885 151.315 27.4415V42.7497H156.247V45.4171H147.204V38.5168C146.186 40.8362 144.483 42.6724 142.095 44.0254C139.707 45.3784 137.006 46.0549 133.991 46.0549ZM135.459 43.3876C137.612 43.3876 139.589 42.9044 141.39 41.9379C143.191 40.9329 144.6 39.5992 145.618 37.9369C146.636 36.236 147.145 34.3805 147.145 32.3703V29.413C146.597 29.9542 145.736 30.3794 144.561 30.6887C143.426 30.998 141.919 31.2492 140.04 31.4425C136.203 31.7518 133.404 32.4283 131.642 33.472C129.88 34.5158 128.999 36.0427 128.999 38.0529C128.999 39.7538 129.587 41.0682 130.761 41.9959C131.936 42.9237 133.502 43.3876 135.459 43.3876Z" fill="#FEF2E8"/>
<path d="M160.465 42.7497H165.868V19.0916H160.465V16.4242H182.075V13.4669H184.835V27.3835H182.134V21.0051C182.134 20.7345 182.017 20.4639 181.782 20.1933C181.547 19.884 181.273 19.6328 180.96 19.4395C180.646 19.2075 180.353 19.0916 180.079 19.0916H170.154V42.7497H177.143V45.4171H160.465V42.7497Z" fill="#FEF2E8"/>
<path d="M200.854 46.0549C197.878 46.0549 195.569 45.3591 193.924 43.9674C192.28 42.5371 191.458 40.6623 191.458 38.3428C191.458 35.2889 192.769 33.1048 195.392 31.7904C198.015 30.4761 201.441 29.6836 205.669 29.413C207.47 29.297 208.958 29.1038 210.132 28.8332C211.346 28.5626 212.266 28.176 212.892 27.6734C213.558 27.1709 213.891 26.5331 213.891 25.7599C213.891 23.4405 213.166 21.6043 211.718 20.2513C210.308 18.8983 208.468 18.2218 206.198 18.2218C204.906 18.2218 203.536 18.531 202.087 19.1495C200.678 19.7681 199.464 20.5799 198.446 21.5849C197.467 22.59 196.978 23.6531 196.978 24.7742V26.8616H194.394V14.5107H196.978V18.9176C197.409 18.4924 197.918 18.1251 198.505 17.8159C199.914 17.1587 201.226 16.6755 202.439 16.3662C203.692 16.0183 205.004 15.8444 206.374 15.8444C210.015 15.8444 212.892 16.8881 215.006 18.9756C217.12 21.0631 218.177 23.885 218.177 27.4415V42.7497H223.11V45.4171H214.067V38.5168C213.049 40.8362 211.346 42.6724 208.958 44.0254C206.57 45.3784 203.868 46.0549 200.854 46.0549ZM202.322 43.3876C204.475 43.3876 206.452 42.9044 208.253 41.9379C210.054 40.9329 211.463 39.5992 212.481 37.9369C213.499 36.236 214.008 34.3805 214.008 32.3703V29.413C213.46 29.9542 212.599 30.3794 211.424 30.6887C210.289 30.998 208.782 31.2492 206.902 31.4425C203.066 31.7518 200.267 32.4283 198.505 33.472C196.743 34.5158 195.862 36.0427 195.862 38.0529C195.862 39.7538 196.449 41.0682 197.624 41.9959C198.798 42.9237 200.364 43.3876 202.322 43.3876Z" fill="#FEF2E8"/>
<path d="M249.232 19.0916H244.358V16.4242H258.921V19.0916H253.519V39.0966L270.901 16.4242H279.768V19.0916H274.366V42.7497H279.768V45.4171H264.148V43.0397H270.079V21.6429L251.522 46.1129H249.232V19.0916Z" fill="#FEF2E8"/>
<path d="M301.185 42.7497H306.529V20.1353L305.941 19.0916H300.95V16.4242H311.109L323.324 39.6765L334.54 16.4242H345.345V19.0916H339.942V42.7497H345.345V45.4171H330.37V42.7497H335.714V20.2513H335.656L323.676 45.4171H321.444L309.23 21.9329V42.7497H314.867V45.4171H301.185V42.7497Z" fill="#FEF2E8"/>
<path d="M360.326 46.0549C357.351 46.0549 355.041 45.3591 353.397 43.9674C351.752 42.5371 350.93 40.6623 350.93 38.3428C350.93 35.2889 352.242 33.1048 354.865 31.7904C357.488 30.4761 360.913 29.6836 365.141 29.413C366.942 29.297 368.43 29.1038 369.604 28.8332C370.818 28.5626 371.738 28.176 372.365 27.6734C373.03 27.1709 373.363 26.5331 373.363 25.7599C373.363 23.4405 372.639 21.6043 371.19 20.2513C369.781 18.8983 367.941 18.2218 365.67 18.2218C364.378 18.2218 363.008 18.531 361.559 19.1495C360.15 19.7681 358.936 20.5799 357.918 21.5849C356.94 22.59 356.45 23.6531 356.45 24.7742V26.8616H353.866V14.5107H356.45V18.9176C356.881 18.4924 357.39 18.1251 357.977 17.8159C359.387 17.1587 360.698 16.6755 361.912 16.3662C363.164 16.0183 364.476 15.8444 365.846 15.8444C369.487 15.8444 372.365 16.8881 374.479 18.9756C376.593 21.0631 377.65 23.885 377.65 27.4415V42.7497H382.582V45.4171H373.539V38.5168C372.521 40.8362 370.818 42.6724 368.43 44.0254C366.042 45.3784 363.341 46.0549 360.326 46.0549ZM361.794 43.3876C363.947 43.3876 365.924 42.9044 367.725 41.9379C369.526 40.9329 370.936 39.5992 371.953 37.9369C372.971 36.236 373.48 34.3805 373.48 32.3703V29.413C372.932 29.9542 372.071 30.3794 370.896 30.6887C369.761 30.998 368.254 31.2492 366.375 31.4425C362.538 31.7518 359.739 32.4283 357.977 33.472C356.215 34.5158 355.335 36.0427 355.335 38.0529C355.335 39.7538 355.922 41.0682 357.096 41.9959C358.271 42.9237 359.837 43.3876 361.794 43.3876Z" fill="#FEF2E8"/>
<path d="M392.907 42.7497H399.661V19.0916H391.557C391.322 19.0916 391.067 19.2075 390.793 19.4395C390.558 19.6328 390.343 19.884 390.147 20.1933C389.952 20.4639 389.854 20.7345 389.854 21.0051V27.3835H387.152V13.4669H389.795V16.4242H413.813V13.4669H416.456V27.3835H413.754V21.0051C413.754 20.7345 413.656 20.4639 413.461 20.1933C413.265 19.884 413.03 19.6328 412.756 19.4395C412.521 19.2075 412.286 19.0916 412.051 19.0916H403.947L404.006 42.7497H410.759V45.4171H392.907V42.7497Z" fill="#FEF2E8"/>
<path d="M448.042 42.6338C447.181 43.4069 446.006 44.1221 444.518 44.7792C443.54 45.1658 442.502 45.4557 441.406 45.649C440.31 45.881 439.174 45.9969 438 45.9969C435.142 45.9969 432.558 45.3784 430.248 44.1414C427.978 42.9044 426.177 41.1455 424.846 38.8647C423.554 36.5839 422.908 33.9552 422.908 30.9786C422.908 28.0793 423.554 25.4893 424.846 23.2085C426.177 20.8891 427.978 19.0916 430.248 17.8159C432.519 16.5015 435.064 15.8444 437.883 15.8444C440.78 15.8444 443.344 16.4822 445.575 17.7579C447.846 19.0336 449.608 20.8118 450.861 23.0926C452.113 25.3733 452.74 27.9827 452.74 30.9207C452.74 31.1139 452.74 31.3266 452.74 31.5585C452.74 31.7518 452.74 31.9644 452.74 32.1963H427.371C427.488 34.4385 428.037 36.4293 429.015 38.1689C429.994 39.8698 431.266 41.2035 432.832 42.1699C434.398 43.0977 436.16 43.5615 438.117 43.5615C439.644 43.5615 441.152 43.233 442.639 42.5758C444.166 41.88 445.399 41.0102 446.339 39.9664C447.318 38.9227 447.807 37.8983 447.807 36.8932V35.7335H450.684V46.5188H448.042V42.6338ZM448.159 29.7029C448.042 27.3835 447.533 25.3733 446.632 23.6724C445.732 21.9329 444.518 20.6185 442.992 19.7294C441.504 18.8016 439.781 18.3377 437.824 18.3377C435.906 18.3377 434.183 18.821 432.656 19.7874C431.129 20.7538 429.896 22.1068 428.957 23.8464C428.017 25.5473 427.488 27.4995 427.371 29.7029H448.159Z" fill="#FEF2E8"/>
<path d="M459.512 54.3469H464.856V19.0916H459.512V16.4242H469.026V22.9766C470.004 20.7345 471.453 18.9949 473.371 17.7579C475.329 16.4822 477.599 15.8444 480.183 15.8444C482.767 15.8444 485.096 16.5015 487.171 17.8159C489.285 19.0916 490.93 20.8891 492.104 23.2085C493.318 25.4893 493.924 28.06 493.924 30.9207C493.924 33.7813 493.318 36.352 492.104 38.6328C490.89 40.9135 489.246 42.7111 487.171 44.0254C485.096 45.3398 482.767 45.9969 480.183 45.9969C477.678 45.9969 475.466 45.3784 473.547 44.1414C471.629 42.8657 470.18 41.1455 469.202 38.9807V54.4049H477.482V57.0142H459.512V54.3469ZM479.244 43.1556C481.123 43.1556 482.826 42.6531 484.353 41.648C485.879 40.6429 487.073 39.2126 487.935 37.3571C488.835 35.4629 489.285 33.3174 489.285 30.9207C489.285 28.5239 488.835 26.3978 487.935 24.5422C487.073 22.648 485.879 21.1984 484.353 20.1933C482.826 19.1882 481.123 18.6857 479.244 18.6857C477.325 18.6857 475.583 19.2269 474.017 20.3093C472.451 21.353 471.218 22.822 470.317 24.7162C469.456 26.5717 469.026 28.6399 469.026 30.9207C469.026 33.2014 469.456 35.2889 470.317 37.1831C471.218 39.0387 472.451 40.5076 474.017 41.59C475.583 42.6338 477.325 43.1556 479.244 43.1556Z" fill="#FEF2E8"/>
<path d="M504.872 19.0916H499.997V16.4242H514.561V19.0916H509.158V39.0966L526.541 16.4242H535.408V19.0916H530.005V42.7497H535.408V45.4171H519.787V43.0397H525.719V21.6429L507.162 46.1129H504.872V19.0916Z" fill="#FEF2E8"/>
<path d="M550.365 46.0549C547.389 46.0549 545.08 45.3591 543.435 43.9674C541.791 42.5371 540.969 40.6623 540.969 38.3428C540.969 35.2889 542.28 33.1048 544.903 31.7904C547.526 30.4761 550.952 29.6836 555.18 29.413C556.981 29.297 558.469 29.1038 559.643 28.8332C560.857 28.5626 561.777 28.176 562.403 27.6734C563.069 27.1709 563.401 26.5331 563.401 25.7599C563.401 23.4405 562.677 21.6043 561.229 20.2513C559.819 18.8983 557.979 18.2218 555.709 18.2218C554.417 18.2218 553.046 18.531 551.598 19.1495C550.189 19.7681 548.975 20.5799 547.957 21.5849C546.978 22.59 546.489 23.6531 546.489 24.7742V26.8616H543.905V14.5107H546.489V18.9176C546.92 18.4924 547.428 18.1251 548.016 17.8159C549.425 17.1587 550.737 16.6755 551.95 16.3662C553.203 16.0183 554.515 15.8444 555.885 15.8444C559.526 15.8444 562.403 16.8881 564.517 18.9756C566.631 21.0631 567.688 23.885 567.688 27.4415V42.7497H572.621V45.4171H563.578V38.5168C562.56 40.8362 560.857 42.6724 558.469 44.0254C556.081 45.3784 553.379 46.0549 550.365 46.0549ZM551.833 43.3876C553.986 43.3876 555.963 42.9044 557.764 41.9379C559.565 40.9329 560.974 39.5992 561.992 37.9369C563.01 36.236 563.519 34.3805 563.519 32.3703V29.413C562.971 29.9542 562.109 30.3794 560.935 30.6887C559.8 30.998 558.292 31.2492 556.413 31.4425C552.577 31.7518 549.777 32.4283 548.016 33.472C546.254 34.5158 545.373 36.0427 545.373 38.0529C545.373 39.7538 545.96 41.0682 547.135 41.9959C548.309 42.9237 549.875 43.3876 551.833 43.3876Z" fill="#FEF2E8"/>
<path d="M578.835 45.9969C578.17 45.9969 577.543 45.9196 576.956 45.765C576.369 45.649 575.88 45.4557 575.488 45.1851V40.7782H575.605C576.114 41.1261 576.643 41.3967 577.191 41.59C577.778 41.7833 578.405 41.88 579.07 41.88C580.714 41.88 582.006 40.8362 582.946 38.7487C583.651 37.2024 584.16 35.2503 584.473 32.8922C584.786 30.5341 585.08 27.5768 585.354 24.0203C585.393 23.8657 585.412 23.7111 585.412 23.5565C585.412 23.4018 585.432 23.2279 585.471 23.0346C585.471 22.7253 585.471 22.4161 585.471 22.1068C585.471 21.7589 585.471 21.411 585.471 21.0631C585.471 20.7538 585.471 20.4446 585.471 20.1353C585.471 19.7874 585.452 19.4395 585.412 19.0916H580.773V16.4242H610.135V19.0916H604.733V42.7497H610.135V45.4171H594.221V42.7497H600.387V19.1495H588.701L588.466 21.469C588.466 21.5076 588.466 21.5463 588.466 21.5849C588.466 21.6236 588.466 21.6623 588.466 21.7009C588.035 26.3398 587.585 30.1475 587.115 33.1241C586.685 36.0621 586.019 38.5361 585.119 40.5463C584.453 42.4018 583.592 43.7742 582.535 44.6633C581.517 45.5524 580.284 45.9969 578.835 45.9969Z" fill="#FEF2E8"/>
<path d="M614.514 42.7497H619.916V19.0916H614.514V16.4242H630.017V19.0916H624.203V28.1953H630.252C633.932 28.1953 636.809 28.9685 638.884 30.5147C640.998 32.0224 642.055 34.1099 642.055 36.7772C642.055 39.4832 640.998 41.6094 638.884 43.1556C636.77 44.6633 633.893 45.4171 630.252 45.4171H614.514V42.7497ZM630.134 42.8077C632.483 42.8077 634.304 42.2665 635.596 41.1841C636.927 40.1017 637.592 38.5941 637.592 36.6612C637.592 34.767 636.927 33.2787 635.596 32.1963C634.304 31.0753 632.483 30.5147 630.134 30.5147H624.203V42.8077H630.134ZM642.584 42.7497H648.75V19.0916H642.584V16.4242H653.037V42.7497H659.203V45.4171H642.584V42.7497Z" fill="#FEF2E8"/>
<path d="M678.752 42.5758L683.45 42.6918C684.311 39.3286 685.055 36.0427 685.681 32.8342C686.308 29.587 686.738 26.3011 686.973 22.9766C686.973 22.7447 686.973 22.5127 686.973 22.2808C687.012 22.0488 687.032 21.7976 687.032 21.527C687.032 21.2177 686.993 20.8698 686.914 20.4832C686.875 20.058 686.836 19.5941 686.797 19.0916H681.571V16.4242H712.107V19.0916H706.763V42.7497H712.166V53.2452H709.464V46.9827C709.464 46.7508 709.367 46.5188 709.171 46.2869C709.014 46.0549 708.799 45.8423 708.525 45.649C708.29 45.4944 708.016 45.4171 707.703 45.4171H683.274C683 45.4171 682.706 45.4944 682.393 45.649C682.08 45.8423 681.805 46.0549 681.571 46.2869C681.336 46.5188 681.199 46.7314 681.16 46.9247V53.2452H678.458L678.752 42.5758ZM702.418 42.8077V19.0336H690.262C689.792 23.5178 689.205 27.6928 688.5 31.5585C687.795 35.3856 686.973 39.1353 686.034 42.8077H702.418Z" fill="#FEF2E8"/>
<path d="M718.468 45.9969C717.802 45.9969 717.176 45.9196 716.589 45.765C716.001 45.649 715.512 45.4557 715.12 45.1851V40.7782H715.238C715.747 41.1261 716.275 41.3967 716.823 41.59C717.411 41.7833 718.037 41.88 718.703 41.88C720.347 41.88 721.639 40.8362 722.578 38.7487C723.283 37.2024 723.792 35.2503 724.105 32.8922C724.418 30.5341 724.712 27.5768 724.986 24.0203C725.025 23.8657 725.045 23.7111 725.045 23.5565C725.045 23.4018 725.064 23.2279 725.103 23.0346C725.103 22.7253 725.103 22.4161 725.103 22.1068C725.103 21.7589 725.103 21.411 725.103 21.0631C725.103 20.7538 725.103 20.4446 725.103 20.1353C725.103 19.7874 725.084 19.4395 725.045 19.0916H720.406V16.4242H749.768V19.0916H744.365V42.7497H749.768V45.4171H733.853V42.7497H740.019V19.1495H728.333L728.098 21.469C728.098 21.5076 728.098 21.5463 728.098 21.5849C728.098 21.6236 728.098 21.6623 728.098 21.7009C727.668 26.3398 727.218 30.1475 726.748 33.1241C726.317 36.0621 725.652 38.5361 724.751 40.5463C724.086 42.4018 723.224 43.7742 722.167 44.6633C721.149 45.5524 719.916 45.9969 718.468 45.9969Z" fill="#FEF2E8"/>
<path d="M749.742 42.7497H753.911L761.604 32.7762C759.49 32.235 757.846 31.2686 756.671 29.8769C755.497 28.4852 754.91 26.8037 754.91 24.8321C754.91 22.1648 755.927 20.0966 757.963 18.6277C759.999 17.1587 762.857 16.4242 766.537 16.4242H783.626V19.0916H778.223V42.7497H783.626V45.4171H769.297V42.7497H773.877V33.588H766.83C766.674 33.588 766.517 33.588 766.361 33.588C766.204 33.588 766.047 33.588 765.891 33.588L759.02 42.7497H764.247V45.4171H749.742V42.7497ZM773.877 31.1526V18.8016H766.83C764.521 18.8016 762.7 19.3622 761.369 20.4832C760.038 21.5656 759.372 23.0539 759.372 24.9481C759.372 26.881 760.038 28.4079 761.369 29.529C762.7 30.6114 764.521 31.1526 766.83 31.1526H773.877Z" fill="#FEF2E8"/>
<path d="M838.069 47.0407C838.069 46.8088 837.971 46.5575 837.775 46.2869C837.619 46.0549 837.404 45.8423 837.13 45.649C836.895 45.4944 836.621 45.4171 836.307 45.4171H805.066V42.7497H810.469V19.0916H805.066V16.4242H814.756V42.7497H831.257V19.0916H824.856V16.4242H841.005V19.0916H835.603V42.7497H840.77V53.3032H838.069V47.0407Z" fill="#FEF2E8"/>
<path d="M850.139 19.0916H845.265V16.4242H859.828V19.0916H854.426V39.0966L871.808 16.4242H880.675V19.0916H875.273V42.7497H880.675V45.4171H865.055V43.0397H870.986V21.6429L852.429 46.1129H850.139V19.0916Z" fill="#FEF2E8"/>
<path d="M901.622 54.3469H908.669V38.8647C907.768 41.0682 906.457 42.8077 904.734 44.0834C903.051 45.3204 901.074 45.939 898.803 45.939C896.532 45.939 894.477 45.3011 892.637 44.0254C890.797 42.7111 889.348 40.9135 888.291 38.6328C887.234 36.3133 886.706 33.7426 886.706 30.9207C886.706 28.06 887.234 25.4893 888.291 23.2085C889.348 20.9278 890.797 19.1495 892.637 17.8739C894.477 16.5595 896.532 15.9023 898.803 15.9023C901.074 15.9023 903.051 16.5402 904.734 17.8159C906.457 19.0529 907.768 20.7538 908.669 22.9186V7.4944H901.622V4.82706H912.955V22.9186C913.817 20.7538 915.109 19.0529 916.831 17.8159C918.554 16.5402 920.55 15.9023 922.821 15.9023C925.092 15.9023 927.147 16.5595 928.987 17.8739C930.827 19.1495 932.276 20.9278 933.333 23.2085C934.39 25.4893 934.918 28.06 934.918 30.9207C934.918 33.7426 934.39 36.3133 933.333 38.6328C932.276 40.9135 930.827 42.7111 928.987 44.0254C927.147 45.3011 925.092 45.939 922.821 45.939C920.55 45.939 918.554 45.3204 916.831 44.0834C915.109 42.8077 913.817 41.0682 912.955 38.8647V54.3469H920.002V57.0142H901.622V54.3469ZM899.919 43.1556C901.602 43.1556 903.109 42.6338 904.441 41.59C905.811 40.5076 906.887 39.0387 907.67 37.1831C908.453 35.2889 908.845 33.2014 908.845 30.9207C908.845 28.6399 908.453 26.5717 907.67 24.7162C906.887 22.822 905.811 21.353 904.441 20.3093C903.109 19.2269 901.602 18.6857 899.919 18.6857C898.274 18.6857 896.787 19.1882 895.456 20.1933C894.164 21.1984 893.146 22.6287 892.402 24.4842C891.658 26.3398 891.286 28.4852 891.286 30.9207C891.286 33.3561 891.658 35.5015 892.402 37.3571C893.146 39.174 894.164 40.6043 895.456 41.648C896.787 42.6531 898.274 43.1556 899.919 43.1556ZM921.705 43.1556C923.35 43.1556 924.818 42.6531 926.11 41.648C927.441 40.6043 928.478 39.174 929.222 37.3571C929.966 35.5015 930.338 33.3561 930.338 30.9207C930.338 28.4852 929.966 26.3398 929.222 24.4842C928.478 22.6287 927.441 21.1984 926.11 20.1933C924.818 19.1882 923.35 18.6857 921.705 18.6857C920.022 18.6857 918.495 19.2269 917.125 20.3093C915.755 21.353 914.678 22.822 913.895 24.7162C913.151 26.5717 912.779 28.6399 912.779 30.9207C912.779 33.2014 913.151 35.2889 913.895 37.1831C914.678 39.0387 915.755 40.5076 917.125 41.59C918.495 42.6338 920.022 43.1556 921.705 43.1556Z" fill="#FEF2E8"/>
<path d="M940.973 54.3469H946.317V19.0916H940.973V16.4242H950.487V22.9766C951.465 20.7345 952.914 18.9949 954.832 17.7579C956.79 16.4822 959.06 15.8444 961.644 15.8444C964.228 15.8444 966.557 16.5015 968.632 17.8159C970.746 19.0916 972.391 20.8891 973.565 23.2085C974.779 25.4893 975.385 28.06 975.385 30.9207C975.385 33.7813 974.779 36.352 973.565 38.6328C972.351 40.9135 970.707 42.7111 968.632 44.0254C966.557 45.3398 964.228 45.9969 961.644 45.9969C959.138 45.9969 956.927 45.3784 955.008 44.1414C953.09 42.8657 951.641 41.1455 950.663 38.9807V54.4049H958.943V57.0142H940.973V54.3469ZM960.704 43.1556C962.584 43.1556 964.287 42.6531 965.813 41.648C967.34 40.6429 968.534 39.2126 969.396 37.3571C970.296 35.4629 970.746 33.3174 970.746 30.9207C970.746 28.5239 970.296 26.3978 969.396 24.5422C968.534 22.648 967.34 21.1984 965.813 20.1933C964.287 19.1882 962.584 18.6857 960.704 18.6857C958.786 18.6857 957.044 19.2269 955.478 20.3093C953.912 21.353 952.679 22.822 951.778 24.7162C950.917 26.5717 950.487 28.6399 950.487 30.9207C950.487 33.2014 950.917 35.2889 951.778 37.1831C952.679 39.0387 953.912 40.5076 955.478 41.59C957.044 42.6338 958.786 43.1556 960.704 43.1556Z" fill="#FEF2E8"/>
<path d="M998.841 45.9969C995.865 45.9969 993.184 45.3398 990.796 44.0254C988.407 42.7111 986.528 40.9135 985.158 38.6328C983.788 36.3133 983.103 33.7426 983.103 30.9207C983.103 28.06 983.788 25.4893 985.158 23.2085C986.528 20.9278 988.407 19.1302 990.796 17.8159C993.184 16.5015 995.865 15.8444 998.841 15.8444C1001.86 15.8444 1004.56 16.5015 1006.94 17.8159C1009.33 19.1302 1011.21 20.9471 1012.58 23.2665C1013.95 25.5473 1014.64 28.0987 1014.64 30.9207C1014.64 33.7426 1013.95 36.3133 1012.58 38.6328C1011.21 40.9135 1009.31 42.7111 1006.89 44.0254C1004.5 45.3398 1001.82 45.9969 998.841 45.9969ZM998.841 43.3296C1000.99 43.3296 1002.93 42.8271 1004.65 41.822C1006.38 40.7782 1007.71 39.3093 1008.65 37.4151C1009.59 35.5209 1010.06 33.3561 1010.06 30.9207C1010.06 28.4852 1009.59 26.3204 1008.65 24.4262C1007.71 22.532 1006.38 21.0631 1004.65 20.0193C1002.93 18.9756 1000.99 18.4537 998.841 18.4537C996.688 18.4537 994.75 18.9756 993.027 20.0193C991.344 21.0631 990.013 22.532 989.034 24.4262C988.094 26.3204 987.624 28.4852 987.624 30.9207C987.624 33.3561 988.094 35.5209 989.034 37.4151C990.013 39.3093 991.344 40.7782 993.027 41.822C994.75 42.8271 996.688 43.3296 998.841 43.3296Z" fill="#FEF2E8"/>
<path d="M1020.68 42.7497H1026.08V19.0916H1020.68V16.4242H1037.36C1040.8 16.4242 1043.51 17.0814 1045.46 18.3957C1047.46 19.7101 1048.46 21.5463 1048.46 23.9044C1048.46 25.5666 1047.95 26.9583 1046.93 28.0793C1045.95 29.2004 1044.5 30.0315 1042.59 30.5727V30.9207C1044.86 31.3845 1046.6 32.2157 1047.81 33.414C1049.03 34.5738 1049.63 36.0621 1049.63 37.8789C1049.63 40.237 1048.63 42.0926 1046.64 43.4456C1044.64 44.7599 1041.84 45.4171 1038.24 45.4171H1020.68V42.7497ZM1038.18 42.8657C1040.41 42.8657 1042.14 42.4018 1043.35 41.4741C1044.6 40.5076 1045.23 39.1546 1045.23 37.4151C1045.23 35.7528 1044.58 34.4578 1043.29 33.53C1042.04 32.6022 1040.28 32.1384 1038.01 32.1384H1030.37V42.8657H1038.18ZM1036.95 29.645C1039.18 29.645 1040.92 29.2004 1042.17 28.3113C1043.47 27.3835 1044.11 26.0692 1044.11 24.3683C1044.11 22.6673 1043.51 21.353 1042.29 20.4252C1041.12 19.4588 1039.43 18.9756 1037.24 18.9756H1030.37V29.645H1036.95Z" fill="#FEF2E8"/>
<path d="M1072.99 45.9969C1070.01 45.9969 1067.33 45.3398 1064.94 44.0254C1062.55 42.7111 1060.67 40.9135 1059.3 38.6328C1057.93 36.3133 1057.25 33.7426 1057.25 30.9207C1057.25 28.06 1057.93 25.4893 1059.3 23.2085C1060.67 20.9278 1062.55 19.1302 1064.94 17.8159C1067.33 16.5015 1070.01 15.8444 1072.99 15.8444C1076 15.8444 1078.7 16.5015 1081.09 17.8159C1083.48 19.1302 1085.36 20.9471 1086.73 23.2665C1088.1 25.5473 1088.78 28.0987 1088.78 30.9207C1088.78 33.7426 1088.1 36.3133 1086.73 38.6328C1085.36 40.9135 1083.46 42.7111 1081.03 44.0254C1078.64 45.3398 1075.96 45.9969 1072.99 45.9969ZM1072.99 43.3296C1075.14 43.3296 1077.08 42.8271 1078.8 41.822C1080.52 40.7782 1081.85 39.3093 1082.79 37.4151C1083.73 35.5209 1084.2 33.3561 1084.2 30.9207C1084.2 28.4852 1083.73 26.3204 1082.79 24.4262C1081.85 22.532 1080.52 21.0631 1078.8 20.0193C1077.08 18.9756 1075.14 18.4537 1072.99 18.4537C1070.83 18.4537 1068.9 18.9756 1067.17 20.0193C1065.49 21.0631 1064.16 22.532 1063.18 24.4262C1062.24 26.3204 1061.77 28.4852 1061.77 30.9207C1061.77 33.3561 1062.24 35.5209 1063.18 37.4151C1064.16 39.3093 1065.49 40.7782 1067.17 41.822C1068.9 42.8271 1070.83 43.3296 1072.99 43.3296Z" fill="#FEF2E8"/>
<path d="M1099.7 19.0916H1094.83V16.4242H1109.39V19.0916H1103.99V39.0966L1121.37 16.4242H1130.24V19.0916H1124.84V42.7497H1130.24V45.4171H1114.62V43.0397H1120.55V21.6429L1101.99 46.1129H1099.7V19.0916ZM1112.56 12.3652C1110.49 12.3652 1108.65 11.9593 1107.04 11.1475C1105.48 10.297 1104.24 9.13733 1103.34 7.66836C1102.48 6.16073 1102.05 4.42116 1102.05 2.44964V1.92777H1104.58V2.39166C1104.58 4.40183 1105.28 5.96745 1106.69 7.08851C1108.1 8.17091 1110.06 8.71211 1112.56 8.71211C1115.11 8.71211 1117.08 8.15158 1118.49 7.03052C1119.9 5.90946 1120.61 4.36317 1120.61 2.39166V1.92777H1123.07V2.44964C1123.07 4.42116 1122.62 6.16073 1121.72 7.66836C1120.86 9.13733 1119.63 10.297 1118.02 11.1475C1116.46 11.9593 1114.64 12.3652 1112.56 12.3652Z" fill="#FEF2E8"/>
<path d="M1151.65 42.7497H1157.06V19.0916H1151.65V16.4242H1187.59V19.0916H1182.19V42.7497H1187.59V45.4171H1172.15V42.7497H1177.85V19.0336H1161.34V42.7497H1167.04V45.4171H1151.65V42.7497Z" fill="#FEF2E8"/>
<path d="M1218.8 42.6338C1217.94 43.4069 1216.77 44.1221 1215.28 44.7792C1214.3 45.1658 1213.26 45.4557 1212.17 45.649C1211.07 45.881 1209.94 45.9969 1208.76 45.9969C1205.9 45.9969 1203.32 45.3784 1201.01 44.1414C1198.74 42.9044 1196.94 41.1455 1195.61 38.8647C1194.32 36.5839 1193.67 33.9552 1193.67 30.9786C1193.67 28.0793 1194.32 25.4893 1195.61 23.2085C1196.94 20.8891 1198.74 19.0916 1201.01 17.8159C1203.28 16.5015 1205.83 15.8444 1208.64 15.8444C1211.54 15.8444 1214.11 16.4822 1216.34 17.7579C1218.61 19.0336 1220.37 20.8118 1221.62 23.0926C1222.87 25.3733 1223.5 27.9827 1223.5 30.9207C1223.5 31.1139 1223.5 31.3266 1223.5 31.5585C1223.5 31.7518 1223.5 31.9644 1223.5 32.1963H1198.13C1198.25 34.4385 1198.8 36.4293 1199.78 38.1689C1200.76 39.8698 1202.03 41.2035 1203.59 42.1699C1205.16 43.0977 1206.92 43.5615 1208.88 43.5615C1210.41 43.5615 1211.91 43.233 1213.4 42.5758C1214.93 41.88 1216.16 41.0102 1217.1 39.9664C1218.08 38.9227 1218.57 37.8983 1218.57 36.8932V35.7335H1221.45V46.5188H1218.8V42.6338ZM1218.92 29.7029C1218.8 27.3835 1218.29 25.3733 1217.39 23.6724C1216.49 21.9329 1215.28 20.6185 1213.75 19.7294C1212.27 18.8016 1210.54 18.3377 1208.59 18.3377C1206.67 18.3377 1204.94 18.821 1203.42 19.7874C1201.89 20.7538 1200.66 22.1068 1199.72 23.8464C1198.78 25.5473 1198.25 27.4995 1198.13 29.7029H1218.92Z" fill="#FEF2E8"/>
<path d="M1243.84 42.9237H1250.94V33.472H1242.61C1238.96 33.472 1236.17 32.6989 1234.21 31.1526C1232.29 29.6063 1231.33 27.4608 1231.33 24.7162V19.0916H1225.93V16.4242H1235.56V24.8321C1235.56 26.8037 1236.19 28.3113 1237.44 29.355C1238.69 30.3988 1240.51 30.9207 1242.9 30.9207H1250.94V18.9176H1244.78V16.4242H1260.63V19.0916H1255.23V42.7497H1260.63V45.4171H1243.84V42.9237Z" fill="#FEF2E8"/>
<path d="M1275.65 46.0549C1272.68 46.0549 1270.37 45.3591 1268.72 43.9674C1267.08 42.5371 1266.26 40.6623 1266.26 38.3428C1266.26 35.2889 1267.57 33.1048 1270.19 31.7904C1272.81 30.4761 1276.24 29.6836 1280.47 29.413C1282.27 29.297 1283.76 29.1038 1284.93 28.8332C1286.14 28.5626 1287.06 28.176 1287.69 27.6734C1288.36 27.1709 1288.69 26.5331 1288.69 25.7599C1288.69 23.4405 1287.96 21.6043 1286.52 20.2513C1285.11 18.8983 1283.27 18.2218 1281 18.2218C1279.7 18.2218 1278.33 18.531 1276.88 19.1495C1275.48 19.7681 1274.26 20.5799 1273.24 21.5849C1272.27 22.59 1271.78 23.6531 1271.78 24.7742V26.8616H1269.19V14.5107H1271.78V18.9176C1272.21 18.4924 1272.72 18.1251 1273.3 17.8159C1274.71 17.1587 1276.02 16.6755 1277.24 16.3662C1278.49 16.0183 1279.8 15.8444 1281.17 15.8444C1284.81 15.8444 1287.69 16.8881 1289.8 18.9756C1291.92 21.0631 1292.98 23.885 1292.98 27.4415V42.7497H1297.91V45.4171H1288.86V38.5168C1287.85 40.8362 1286.14 42.6724 1283.76 44.0254C1281.37 45.3784 1278.67 46.0549 1275.65 46.0549ZM1277.12 43.3876C1279.27 43.3876 1281.25 42.9044 1283.05 41.9379C1284.85 40.9329 1286.26 39.5992 1287.28 37.9369C1288.3 36.236 1288.81 34.3805 1288.81 32.3703V29.413C1288.26 29.9542 1287.4 30.3794 1286.22 30.6887C1285.09 30.998 1283.58 31.2492 1281.7 31.4425C1277.86 31.7518 1275.06 32.4283 1273.3 33.472C1271.54 34.5158 1270.66 36.0427 1270.66 38.0529C1270.66 39.7538 1271.25 41.0682 1272.42 41.9959C1273.6 42.9237 1275.16 43.3876 1277.12 43.3876Z" fill="#FEF2E8"/>
<path d="M1308.23 42.7497H1314.99V19.0916H1306.88C1306.65 19.0916 1306.39 19.2075 1306.12 19.4395C1305.88 19.6328 1305.67 19.884 1305.47 20.1933C1305.28 20.4639 1305.18 20.7345 1305.18 21.0051V27.3835H1302.48V13.4669H1305.12V16.4242H1329.14V13.4669H1331.78V27.3835H1329.08V21.0051C1329.08 20.7345 1328.98 20.4639 1328.79 20.1933C1328.59 19.884 1328.36 19.6328 1328.08 19.4395C1327.85 19.2075 1327.61 19.0916 1327.38 19.0916H1319.27L1319.33 42.7497H1326.09V45.4171H1308.23V42.7497Z" fill="#FEF2E8"/>
<path d="M1341.46 19.0916H1336.59V16.4242H1351.15V19.0916H1345.75V39.0966L1363.13 16.4242H1372V19.0916H1366.6V42.7497H1372V45.4171H1356.38V43.0397H1362.31V21.6429L1343.75 46.1129H1341.46V19.0916Z" fill="#FEF2E8"/>
<path d="M1 42.5178H7.45964V7.72635H1V4.82706H30.5382V1H33.4744V17.352H30.5382V9.87182C30.5382 9.56256 30.4011 9.23398 30.1271 8.88606C29.8922 8.53815 29.579 8.24822 29.1875 8.01628C28.796 7.78433 28.3654 7.66836 27.8956 7.66836H12.3925V22.2808H20.9074C25.7228 22.2808 29.5007 23.3052 32.2412 25.354C35.0208 27.4028 36.4106 30.2248 36.4106 33.8199C36.4106 37.4537 35.0208 40.295 32.2412 42.3438C29.5007 44.3927 25.7228 45.4171 20.9074 45.4171H1V42.5178ZM20.7313 42.5758C24.059 42.5758 26.6428 41.8026 28.4828 40.2564C30.362 38.7101 31.3016 36.5453 31.3016 33.762C31.3016 31.0173 30.362 28.8718 28.4828 27.3255C26.6428 25.7792 24.059 25.0061 20.7313 25.0061H12.3925V42.5758H20.7313Z" stroke="black" stroke-width="2" mask="url(#path-1-outside-1_17_2)"/>
<path d="M42.1912 44.4893H44.8338V47.0987C44.8338 48.413 45.147 49.6694 45.7734 50.8678C46.3998 52.0661 47.2219 53.0132 48.2398 53.7091C49.2968 54.4435 50.3734 54.8108 51.4696 54.8108C52.7615 54.8108 53.8186 54.3662 54.6407 53.4771C55.4628 52.6267 55.8739 51.4283 55.8739 49.882V48.9542C55.8739 48.3744 55.776 47.7558 55.5803 47.0987C55.3845 46.4415 55.0518 45.591 54.582 44.5473C54.4645 44.238 54.3275 43.9288 54.1709 43.6195C54.0143 43.2716 53.8381 42.9237 53.6424 42.5758L41.4278 19.0916H37.3171V16.4242H53.3488V19.0916H46.5955L56.6373 39.0387C56.7547 39.2706 56.8526 39.5219 56.9309 39.7925C57.0484 40.0631 57.1658 40.353 57.2833 40.6623C57.4007 40.9329 57.5377 41.3581 57.6943 41.9379C57.7726 41.5127 57.8509 41.1261 57.9292 40.7782C58.0467 40.4303 58.1837 40.0824 58.3403 39.7345L67.2663 19.0916H59.8084V16.4242H74.3719V19.0916H70.2025L60.3369 41.648C60.2978 41.6867 60.2586 41.7447 60.2195 41.822C60.2195 41.8606 60.2195 41.9186 60.2195 41.9959C59.828 42.9237 59.5539 43.7548 59.3973 44.4893C59.2407 45.2238 59.1624 46.0356 59.1624 46.9247V48.1424C59.1624 49.998 58.8297 51.6409 58.1641 53.0712C57.4986 54.5402 56.5786 55.6612 55.4041 56.4344C54.2296 57.2075 52.879 57.5941 51.3521 57.5941C50.4517 57.5941 49.5709 57.4588 48.7096 57.1882C47.8483 56.9176 47.0653 56.5504 46.3606 56.0865C45.8125 55.7386 45.3036 55.3133 44.8338 54.8108V58H42.1912V44.4893Z" stroke="black" stroke-width="2" mask="url(#path-1-outside-1_17_2)"/>
<path d="M74.8495 42.7497H80.1934V20.1353L79.6062 19.0916H74.6146V16.4242H84.7739L96.9885 39.6765L108.205 16.4242H119.01V19.0916H113.607V42.7497H119.01V45.4171H104.035V42.7497H109.379V20.2513H109.321L97.3408 45.4171H95.1093L82.8947 21.9329V42.7497H88.5322V45.4171H74.8495V42.7497Z" stroke="black" stroke-width="2" mask="url(#path-1-outside-1_17_2)"/>
<path d="M133.991 46.0549C131.016 46.0549 128.706 45.3591 127.062 43.9674C125.417 42.5371 124.595 40.6623 124.595 38.3428C124.595 35.2889 125.907 33.1048 128.53 31.7904C131.153 30.4761 134.578 29.6836 138.806 29.413C140.607 29.297 142.095 29.1038 143.269 28.8332C144.483 28.5626 145.403 28.176 146.029 27.6734C146.695 27.1709 147.028 26.5331 147.028 25.7599C147.028 23.4405 146.303 21.6043 144.855 20.2513C143.446 18.8983 141.606 18.2218 139.335 18.2218C138.043 18.2218 136.673 18.531 135.224 19.1495C133.815 19.7681 132.601 20.5799 131.583 21.5849C130.605 22.59 130.115 23.6531 130.115 24.7742V26.8616H127.531V14.5107H130.115V18.9176C130.546 18.4924 131.055 18.1251 131.642 17.8159C133.051 17.1587 134.363 16.6755 135.577 16.3662C136.829 16.0183 138.141 15.8444 139.511 15.8444C143.152 15.8444 146.029 16.8881 148.143 18.9756C150.258 21.0631 151.315 23.885 151.315 27.4415V42.7497H156.247V45.4171H147.204V38.5168C146.186 40.8362 144.483 42.6724 142.095 44.0254C139.707 45.3784 137.006 46.0549 133.991 46.0549ZM135.459 43.3876C137.612 43.3876 139.589 42.9044 141.39 41.9379C143.191 40.9329 144.6 39.5992 145.618 37.9369C146.636 36.236 147.145 34.3805 147.145 32.3703V29.413C146.597 29.9542 145.736 30.3794 144.561 30.6887C143.426 30.998 141.919 31.2492 140.04 31.4425C136.203 31.7518 133.404 32.4283 131.642 33.472C129.88 34.5158 128.999 36.0427 128.999 38.0529C128.999 39.7538 129.587 41.0682 130.761 41.9959C131.936 42.9237 133.502 43.3876 135.459 43.3876Z" stroke="black" stroke-width="2" mask="url(#path-1-outside-1_17_2)"/>
<path d="M160.465 42.7497H165.868V19.0916H160.465V16.4242H182.075V13.4669H184.835V27.3835H182.134V21.0051C182.134 20.7345 182.017 20.4639 181.782 20.1933C181.547 19.884 181.273 19.6328 180.96 19.4395C180.646 19.2075 180.353 19.0916 180.079 19.0916H170.154V42.7497H177.143V45.4171H160.465V42.7497Z" stroke="black" stroke-width="2" mask="url(#path-1-outside-1_17_2)"/>
<path d="M200.854 46.0549C197.878 46.0549 195.569 45.3591 193.924 43.9674C192.28 42.5371 191.458 40.6623 191.458 38.3428C191.458 35.2889 192.769 33.1048 195.392 31.7904C198.015 30.4761 201.441 29.6836 205.669 29.413C207.47 29.297 208.958 29.1038 210.132 28.8332C211.346 28.5626 212.266 28.176 212.892 27.6734C213.558 27.1709 213.891 26.5331 213.891 25.7599C213.891 23.4405 213.166 21.6043 211.718 20.2513C210.308 18.8983 208.468 18.2218 206.198 18.2218C204.906 18.2218 203.536 18.531 202.087 19.1495C200.678 19.7681 199.464 20.5799 198.446 21.5849C197.467 22.59 196.978 23.6531 196.978 24.7742V26.8616H194.394V14.5107H196.978V18.9176C197.409 18.4924 197.918 18.1251 198.505 17.8159C199.914 17.1587 201.226 16.6755 202.439 16.3662C203.692 16.0183 205.004 15.8444 206.374 15.8444C210.015 15.8444 212.892 16.8881 215.006 18.9756C217.12 21.0631 218.177 23.885 218.177 27.4415V42.7497H223.11V45.4171H214.067V38.5168C213.049 40.8362 211.346 42.6724 208.958 44.0254C206.57 45.3784 203.868 46.0549 200.854 46.0549ZM202.322 43.3876C204.475 43.3876 206.452 42.9044 208.253 41.9379C210.054 40.9329 211.463 39.5992 212.481 37.9369C213.499 36.236 214.008 34.3805 214.008 32.3703V29.413C213.46 29.9542 212.599 30.3794 211.424 30.6887C210.289 30.998 208.782 31.2492 206.902 31.4425C203.066 31.7518 200.267 32.4283 198.505 33.472C196.743 34.5158 195.862 36.0427 195.862 38.0529C195.862 39.7538 196.449 41.0682 197.624 41.9959C198.798 42.9237 200.364 43.3876 202.322 43.3876Z" stroke="black" stroke-width="2" mask="url(#path-1-outside-1_17_2)"/>
<path d="M249.232 19.0916H244.358V16.4242H258.921V19.0916H253.519V39.0966L270.901 16.4242H279.768V19.0916H274.366V42.7497H279.768V45.4171H264.148V43.0397H270.079V21.6429L251.522 46.1129H249.232V19.0916Z" stroke="black" stroke-width="2" mask="url(#path-1-outside-1_17_2)"/>
<path d="M301.185 42.7497H306.529V20.1353L305.941 19.0916H300.95V16.4242H311.109L323.324 39.6765L334.54 16.4242H345.345V19.0916H339.942V42.7497H345.345V45.4171H330.37V42.7497H335.714V20.2513H335.656L323.676 45.4171H321.444L309.23 21.9329V42.7497H314.867V45.4171H301.185V42.7497Z" stroke="black" stroke-width="2" mask="url(#path-1-outside-1_17_2)"/>
<path d="M360.326 46.0549C357.351 46.0549 355.041 45.3591 353.397 43.9674C351.752 42.5371 350.93 40.6623 350.93 38.3428C350.93 35.2889 352.242 33.1048 354.865 31.7904C357.488 30.4761 360.913 29.6836 365.141 29.413C366.942 29.297 368.43 29.1038 369.604 28.8332C370.818 28.5626 371.738 28.176 372.365 27.6734C373.03 27.1709 373.363 26.5331 373.363 25.7599C373.363 23.4405 372.639 21.6043 371.19 20.2513C369.781 18.8983 367.941 18.2218 365.67 18.2218C364.378 18.2218 363.008 18.531 361.559 19.1495C360.15 19.7681 358.936 20.5799 357.918 21.5849C356.94 22.59 356.45 23.6531 356.45 24.7742V26.8616H353.866V14.5107H356.45V18.9176C356.881 18.4924 357.39 18.1251 357.977 17.8159C359.387 17.1587 360.698 16.6755 361.912 16.3662C363.164 16.0183 364.476 15.8444 365.846 15.8444C369.487 15.8444 372.365 16.8881 374.479 18.9756C376.593 21.0631 377.65 23.885 377.65 27.4415V42.7497H382.582V45.4171H373.539V38.5168C372.521 40.8362 370.818 42.6724 368.43 44.0254C366.042 45.3784 363.341 46.0549 360.326 46.0549ZM361.794 43.3876C363.947 43.3876 365.924 42.9044 367.725 41.9379C369.526 40.9329 370.936 39.5992 371.953 37.9369C372.971 36.236 373.48 34.3805 373.48 32.3703V29.413C372.932 29.9542 372.071 30.3794 370.896 30.6887C369.761 30.998 368.254 31.2492 366.375 31.4425C362.538 31.7518 359.739 32.4283 357.977 33.472C356.215 34.5158 355.335 36.0427 355.335 38.0529C355.335 39.7538 355.922 41.0682 357.096 41.9959C358.271 42.9237 359.837 43.3876 361.794 43.3876Z" stroke="black" stroke-width="2" mask="url(#path-1-outside-1_17_2)"/>
<path d="M392.907 42.7497H399.661V19.0916H391.557C391.322 19.0916 391.067 19.2075 390.793 19.4395C390.558 19.6328 390.343 19.884 390.147 20.1933C389.952 20.4639 389.854 20.7345 389.854 21.0051V27.3835H387.152V13.4669H389.795V16.4242H413.813V13.4669H416.456V27.3835H413.754V21.0051C413.754 20.7345 413.656 20.4639 413.461 20.1933C413.265 19.884 413.03 19.6328 412.756 19.4395C412.521 19.2075 412.286 19.0916 412.051 19.0916H403.947L404.006 42.7497H410.759V45.4171H392.907V42.7497Z" stroke="black" stroke-width="2" mask="url(#path-1-outside-1_17_2)"/>
<path d="M448.042 42.6338C447.181 43.4069 446.006 44.1221 444.518 44.7792C443.54 45.1658 442.502 45.4557 441.406 45.649C440.31 45.881 439.174 45.9969 438 45.9969C435.142 45.9969 432.558 45.3784 430.248 44.1414C427.978 42.9044 426.177 41.1455 424.846 38.8647C423.554 36.5839 422.908 33.9552 422.908 30.9786C422.908 28.0793 423.554 25.4893 424.846 23.2085C426.177 20.8891 427.978 19.0916 430.248 17.8159C432.519 16.5015 435.064 15.8444 437.883 15.8444C440.78 15.8444 443.344 16.4822 445.575 17.7579C447.846 19.0336 449.608 20.8118 450.861 23.0926C452.113 25.3733 452.74 27.9827 452.74 30.9207C452.74 31.1139 452.74 31.3266 452.74 31.5585C452.74 31.7518 452.74 31.9644 452.74 32.1963H427.371C427.488 34.4385 428.037 36.4293 429.015 38.1689C429.994 39.8698 431.266 41.2035 432.832 42.1699C434.398 43.0977 436.16 43.5615 438.117 43.5615C439.644 43.5615 441.152 43.233 442.639 42.5758C444.166 41.88 445.399 41.0102 446.339 39.9664C447.318 38.9227 447.807 37.8983 447.807 36.8932V35.7335H450.684V46.5188H448.042V42.6338ZM448.159 29.7029C448.042 27.3835 447.533 25.3733 446.632 23.6724C445.732 21.9329 444.518 20.6185 442.992 19.7294C441.504 18.8016 439.781 18.3377 437.824 18.3377C435.906 18.3377 434.183 18.821 432.656 19.7874C431.129 20.7538 429.896 22.1068 428.957 23.8464C428.017 25.5473 427.488 27.4995 427.371 29.7029H448.159Z" stroke="black" stroke-width="2" mask="url(#path-1-outside-1_17_2)"/>
<path d="M459.512 54.3469H464.856V19.0916H459.512V16.4242H469.026V22.9766C470.004 20.7345 471.453 18.9949 473.371 17.7579C475.329 16.4822 477.599 15.8444 480.183 15.8444C482.767 15.8444 485.096 16.5015 487.171 17.8159C489.285 19.0916 490.93 20.8891 492.104 23.2085C493.318 25.4893 493.924 28.06 493.924 30.9207C493.924 33.7813 493.318 36.352 492.104 38.6328C490.89 40.9135 489.246 42.7111 487.171 44.0254C485.096 45.3398 482.767 45.9969 480.183 45.9969C477.678 45.9969 475.466 45.3784 473.547 44.1414C471.629 42.8657 470.18 41.1455 469.202 38.9807V54.4049H477.482V57.0142H459.512V54.3469ZM479.244 43.1556C481.123 43.1556 482.826 42.6531 484.353 41.648C485.879 40.6429 487.073 39.2126 487.935 37.3571C488.835 35.4629 489.285 33.3174 489.285 30.9207C489.285 28.5239 488.835 26.3978 487.935 24.5422C487.073 22.648 485.879 21.1984 484.353 20.1933C482.826 19.1882 481.123 18.6857 479.244 18.6857C477.325 18.6857 475.583 19.2269 474.017 20.3093C472.451 21.353 471.218 22.822 470.317 24.7162C469.456 26.5717 469.026 28.6399 469.026 30.9207C469.026 33.2014 469.456 35.2889 470.317 37.1831C471.218 39.0387 472.451 40.5076 474.017 41.59C475.583 42.6338 477.325 43.1556 479.244 43.1556Z" stroke="black" stroke-width="2" mask="url(#path-1-outside-1_17_2)"/>
<path d="M504.872 19.0916H499.997V16.4242H514.561V19.0916H509.158V39.0966L526.541 16.4242H535.408V19.0916H530.005V42.7497H535.408V45.4171H519.787V43.0397H525.719V21.6429L507.162 46.1129H504.872V19.0916Z" stroke="black" stroke-width="2" mask="url(#path-1-outside-1_17_2)"/>
<path d="M550.365 46.0549C547.389 46.0549 545.08 45.3591 543.435 43.9674C541.791 42.5371 540.969 40.6623 540.969 38.3428C540.969 35.2889 542.28 33.1048 544.903 31.7904C547.526 30.4761 550.952 29.6836 555.18 29.413C556.981 29.297 558.469 29.1038 559.643 28.8332C560.857 28.5626 561.777 28.176 562.403 27.6734C563.069 27.1709 563.401 26.5331 563.401 25.7599C563.401 23.4405 562.677 21.6043 561.229 20.2513C559.819 18.8983 557.979 18.2218 555.709 18.2218C554.417 18.2218 553.046 18.531 551.598 19.1495C550.189 19.7681 548.975 20.5799 547.957 21.5849C546.978 22.59 546.489 23.6531 546.489 24.7742V26.8616H543.905V14.5107H546.489V18.9176C546.92 18.4924 547.428 18.1251 548.016 17.8159C549.425 17.1587 550.737 16.6755 551.95 16.3662C553.203 16.0183 554.515 15.8444 555.885 15.8444C559.526 15.8444 562.403 16.8881 564.517 18.9756C566.631 21.0631 567.688 23.885 567.688 27.4415V42.7497H572.621V45.4171H563.578V38.5168C562.56 40.8362 560.857 42.6724 558.469 44.0254C556.081 45.3784 553.379 46.0549 550.365 46.0549ZM551.833 43.3876C553.986 43.3876 555.963 42.9044 557.764 41.9379C559.565 40.9329 560.974 39.5992 561.992 37.9369C563.01 36.236 563.519 34.3805 563.519 32.3703V29.413C562.971 29.9542 562.109 30.3794 560.935 30.6887C559.8 30.998 558.292 31.2492 556.413 31.4425C552.577 31.7518 549.777 32.4283 548.016 33.472C546.254 34.5158 545.373 36.0427 545.373 38.0529C545.373 39.7538 545.96 41.0682 547.135 41.9959C548.309 42.9237 549.875 43.3876 551.833 43.3876Z" stroke="black" stroke-width="2" mask="url(#path-1-outside-1_17_2)"/>
<path d="M578.835 45.9969C578.17 45.9969 577.543 45.9196 576.956 45.765C576.369 45.649 575.88 45.4557 575.488 45.1851V40.7782H575.605C576.114 41.1261 576.643 41.3967 577.191 41.59C577.778 41.7833 578.405 41.88 579.07 41.88C580.714 41.88 582.006 40.8362 582.946 38.7487C583.651 37.2024 584.16 35.2503 584.473 32.8922C584.786 30.5341 585.08 27.5768 585.354 24.0203C585.393 23.8657 585.412 23.7111 585.412 23.5565C585.412 23.4018 585.432 23.2279 585.471 23.0346C585.471 22.7253 585.471 22.4161 585.471 22.1068C585.471 21.7589 585.471 21.411 585.471 21.0631C585.471 20.7538 585.471 20.4446 585.471 20.1353C585.471 19.7874 585.452 19.4395 585.412 19.0916H580.773V16.4242H610.135V19.0916H604.733V42.7497H610.135V45.4171H594.221V42.7497H600.387V19.1495H588.701L588.466 21.469C588.466 21.5076 588.466 21.5463 588.466 21.5849C588.466 21.6236 588.466 21.6623 588.466 21.7009C588.035 26.3398 587.585 30.1475 587.115 33.1241C586.685 36.0621 586.019 38.5361 585.119 40.5463C584.453 42.4018 583.592 43.7742 582.535 44.6633C581.517 45.5524 580.284 45.9969 578.835 45.9969Z" stroke="black" stroke-width="2" mask="url(#path-1-outside-1_17_2)"/>
<path d="M614.514 42.7497H619.916V19.0916H614.514V16.4242H630.017V19.0916H624.203V28.1953H630.252C633.932 28.1953 636.809 28.9685 638.884 30.5147C640.998 32.0224 642.055 34.1099 642.055 36.7772C642.055 39.4832 640.998 41.6094 638.884 43.1556C636.77 44.6633 633.893 45.4171 630.252 45.4171H614.514V42.7497ZM630.134 42.8077C632.483 42.8077 634.304 42.2665 635.596 41.1841C636.927 40.1017 637.592 38.5941 637.592 36.6612C637.592 34.767 636.927 33.2787 635.596 32.1963C634.304 31.0753 632.483 30.5147 630.134 30.5147H624.203V42.8077H630.134ZM642.584 42.7497H648.75V19.0916H642.584V16.4242H653.037V42.7497H659.203V45.4171H642.584V42.7497Z" stroke="black" stroke-width="2" mask="url(#path-1-outside-1_17_2)"/>
<path d="M678.752 42.5758L683.45 42.6918C684.311 39.3286 685.055 36.0427 685.681 32.8342C686.308 29.587 686.738 26.3011 686.973 22.9766C686.973 22.7447 686.973 22.5127 686.973 22.2808C687.012 22.0488 687.032 21.7976 687.032 21.527C687.032 21.2177 686.993 20.8698 686.914 20.4832C686.875 20.058 686.836 19.5941 686.797 19.0916H681.571V16.4242H712.107V19.0916H706.763V42.7497H712.166V53.2452H709.464V46.9827C709.464 46.7508 709.367 46.5188 709.171 46.2869C709.014 46.0549 708.799 45.8423 708.525 45.649C708.29 45.4944 708.016 45.4171 707.703 45.4171H683.274C683 45.4171 682.706 45.4944 682.393 45.649C682.08 45.8423 681.805 46.0549 681.571 46.2869C681.336 46.5188 681.199 46.7314 681.16 46.9247V53.2452H678.458L678.752 42.5758ZM702.418 42.8077V19.0336H690.262C689.792 23.5178 689.205 27.6928 688.5 31.5585C687.795 35.3856 686.973 39.1353 686.034 42.8077H702.418Z" stroke="black" stroke-width="2" mask="url(#path-1-outside-1_17_2)"/>
<path d="M718.468 45.9969C717.802 45.9969 717.176 45.9196 716.589 45.765C716.001 45.649 715.512 45.4557 715.12 45.1851V40.7782H715.238C715.747 41.1261 716.275 41.3967 716.823 41.59C717.411 41.7833 718.037 41.88 718.703 41.88C720.347 41.88 721.639 40.8362 722.578 38.7487C723.283 37.2024 723.792 35.2503 724.105 32.8922C724.418 30.5341 724.712 27.5768 724.986 24.0203C725.025 23.8657 725.045 23.7111 725.045 23.5565C725.045 23.4018 725.064 23.2279 725.103 23.0346C725.103 22.7253 725.103 22.4161 725.103 22.1068C725.103 21.7589 725.103 21.411 725.103 21.0631C725.103 20.7538 725.103 20.4446 725.103 20.1353C725.103 19.7874 725.084 19.4395 725.045 19.0916H720.406V16.4242H749.768V19.0916H744.365V42.7497H749.768V45.4171H733.853V42.7497H740.019V19.1495H728.333L728.098 21.469C728.098 21.5076 728.098 21.5463 728.098 21.5849C728.098 21.6236 728.098 21.6623 728.098 21.7009C727.668 26.3398 727.218 30.1475 726.748 33.1241C726.317 36.0621 725.652 38.5361 724.751 40.5463C724.086 42.4018 723.224 43.7742 722.167 44.6633C721.149 45.5524 719.916 45.9969 718.468 45.9969Z" stroke="black" stroke-width="2" mask="url(#path-1-outside-1_17_2)"/>
<path d="M749.742 42.7497H753.911L761.604 32.7762C759.49 32.235 757.846 31.2686 756.671 29.8769C755.497 28.4852 754.91 26.8037 754.91 24.8321C754.91 22.1648 755.927 20.0966 757.963 18.6277C759.999 17.1587 762.857 16.4242 766.537 16.4242H783.626V19.0916H778.223V42.7497H783.626V45.4171H769.297V42.7497H773.877V33.588H766.83C766.674 33.588 766.517 33.588 766.361 33.588C766.204 33.588 766.047 33.588 765.891 33.588L759.02 42.7497H764.247V45.4171H749.742V42.7497ZM773.877 31.1526V18.8016H766.83C764.521 18.8016 762.7 19.3622 761.369 20.4832C760.038 21.5656 759.372 23.0539 759.372 24.9481C759.372 26.881 760.038 28.4079 761.369 29.529C762.7 30.6114 764.521 31.1526 766.83 31.1526H773.877Z" stroke="black" stroke-width="2" mask="url(#path-1-outside-1_17_2)"/>
<path d="M838.069 47.0407C838.069 46.8088 837.971 46.5575 837.775 46.2869C837.619 46.0549 837.404 45.8423 837.13 45.649C836.895 45.4944 836.621 45.4171 836.307 45.4171H805.066V42.7497H810.469V19.0916H805.066V16.4242H814.756V42.7497H831.257V19.0916H824.856V16.4242H841.005V19.0916H835.603V42.7497H840.77V53.3032H838.069V47.0407Z" stroke="black" stroke-width="2" mask="url(#path-1-outside-1_17_2)"/>
<path d="M850.139 19.0916H845.265V16.4242H859.828V19.0916H854.426V39.0966L871.808 16.4242H880.675V19.0916H875.273V42.7497H880.675V45.4171H865.055V43.0397H870.986V21.6429L852.429 46.1129H850.139V19.0916Z" stroke="black" stroke-width="2" mask="url(#path-1-outside-1_17_2)"/>
<path d="M901.622 54.3469H908.669V38.8647C907.768 41.0682 906.457 42.8077 904.734 44.0834C903.051 45.3204 901.074 45.939 898.803 45.939C896.532 45.939 894.477 45.3011 892.637 44.0254C890.797 42.7111 889.348 40.9135 888.291 38.6328C887.234 36.3133 886.706 33.7426 886.706 30.9207C886.706 28.06 887.234 25.4893 888.291 23.2085C889.348 20.9278 890.797 19.1495 892.637 17.8739C894.477 16.5595 896.532 15.9023 898.803 15.9023C901.074 15.9023 903.051 16.5402 904.734 17.8159C906.457 19.0529 907.768 20.7538 908.669 22.9186V7.4944H901.622V4.82706H912.955V22.9186C913.817 20.7538 915.109 19.0529 916.831 17.8159C918.554 16.5402 920.55 15.9023 922.821 15.9023C925.092 15.9023 927.147 16.5595 928.987 17.8739C930.827 19.1495 932.276 20.9278 933.333 23.2085C934.39 25.4893 934.918 28.06 934.918 30.9207C934.918 33.7426 934.39 36.3133 933.333 38.6328C932.276 40.9135 930.827 42.7111 928.987 44.0254C927.147 45.3011 925.092 45.939 922.821 45.939C920.55 45.939 918.554 45.3204 916.831 44.0834C915.109 42.8077 913.817 41.0682 912.955 38.8647V54.3469H920.002V57.0142H901.622V54.3469ZM899.919 43.1556C901.602 43.1556 903.109 42.6338 904.441 41.59C905.811 40.5076 906.887 39.0387 907.67 37.1831C908.453 35.2889 908.845 33.2014 908.845 30.9207C908.845 28.6399 908.453 26.5717 907.67 24.7162C906.887 22.822 905.811 21.353 904.441 20.3093C903.109 19.2269 901.602 18.6857 899.919 18.6857C898.274 18.6857 896.787 19.1882 895.456 20.1933C894.164 21.1984 893.146 22.6287 892.402 24.4842C891.658 26.3398 891.286 28.4852 891.286 30.9207C891.286 33.3561 891.658 35.5015 892.402 37.3571C893.146 39.174 894.164 40.6043 895.456 41.648C896.787 42.6531 898.274 43.1556 899.919 43.1556ZM921.705 43.1556C923.35 43.1556 924.818 42.6531 926.11 41.648C927.441 40.6043 928.478 39.174 929.222 37.3571C929.966 35.5015 930.338 33.3561 930.338 30.9207C930.338 28.4852 929.966 26.3398 929.222 24.4842C928.478 22.6287 927.441 21.1984 926.11 20.1933C924.818 19.1882 923.35 18.6857 921.705 18.6857C920.022 18.6857 918.495 19.2269 917.125 20.3093C915.755 21.353 914.678 22.822 913.895 24.7162C913.151 26.5717 912.779 28.6399 912.779 30.9207C912.779 33.2014 913.151 35.2889 913.895 37.1831C914.678 39.0387 915.755 40.5076 917.125 41.59C918.495 42.6338 920.022 43.1556 921.705 43.1556Z" stroke="black" stroke-width="2" mask="url(#path-1-outside-1_17_2)"/>
<path d="M940.973 54.3469H946.317V19.0916H940.973V16.4242H950.487V22.9766C951.465 20.7345 952.914 18.9949 954.832 17.7579C956.79 16.4822 959.06 15.8444 961.644 15.8444C964.228 15.8444 966.557 16.5015 968.632 17.8159C970.746 19.0916 972.391 20.8891 973.565 23.2085C974.779 25.4893 975.385 28.06 975.385 30.9207C975.385 33.7813 974.779 36.352 973.565 38.6328C972.351 40.9135 970.707 42.7111 968.632 44.0254C966.557 45.3398 964.228 45.9969 961.644 45.9969C959.138 45.9969 956.927 45.3784 955.008 44.1414C953.09 42.8657 951.641 41.1455 950.663 38.9807V54.4049H958.943V57.0142H940.973V54.3469ZM960.704 43.1556C962.584 43.1556 964.287 42.6531 965.813 41.648C967.34 40.6429 968.534 39.2126 969.396 37.3571C970.296 35.4629 970.746 33.3174 970.746 30.9207C970.746 28.5239 970.296 26.3978 969.396 24.5422C968.534 22.648 967.34 21.1984 965.813 20.1933C964.287 19.1882 962.584 18.6857 960.704 18.6857C958.786 18.6857 957.044 19.2269 955.478 20.3093C953.912 21.353 952.679 22.822 951.778 24.7162C950.917 26.5717 950.487 28.6399 950.487 30.9207C950.487 33.2014 950.917 35.2889 951.778 37.1831C952.679 39.0387 953.912 40.5076 955.478 41.59C957.044 42.6338 958.786 43.1556 960.704 43.1556Z" stroke="black" stroke-width="2" mask="url(#path-1-outside-1_17_2)"/>
<path d="M998.841 45.9969C995.865 45.9969 993.184 45.3398 990.796 44.0254C988.407 42.7111 986.528 40.9135 985.158 38.6328C983.788 36.3133 983.103 33.7426 983.103 30.9207C983.103 28.06 983.788 25.4893 985.158 23.2085C986.528 20.9278 988.407 19.1302 990.796 17.8159C993.184 16.5015 995.865 15.8444 998.841 15.8444C1001.86 15.8444 1004.56 16.5015 1006.94 17.8159C1009.33 19.1302 1011.21 20.9471 1012.58 23.2665C1013.95 25.5473 1014.64 28.0987 1014.64 30.9207C1014.64 33.7426 1013.95 36.3133 1012.58 38.6328C1011.21 40.9135 1009.31 42.7111 1006.89 44.0254C1004.5 45.3398 1001.82 45.9969 998.841 45.9969ZM998.841 43.3296C1000.99 43.3296 1002.93 42.8271 1004.65 41.822C1006.38 40.7782 1007.71 39.3093 1008.65 37.4151C1009.59 35.5209 1010.06 33.3561 1010.06 30.9207C1010.06 28.4852 1009.59 26.3204 1008.65 24.4262C1007.71 22.532 1006.38 21.0631 1004.65 20.0193C1002.93 18.9756 1000.99 18.4537 998.841 18.4537C996.688 18.4537 994.75 18.9756 993.027 20.0193C991.344 21.0631 990.013 22.532 989.034 24.4262C988.094 26.3204 987.624 28.4852 987.624 30.9207C987.624 33.3561 988.094 35.5209 989.034 37.4151C990.013 39.3093 991.344 40.7782 993.027 41.822C994.75 42.8271 996.688 43.3296 998.841 43.3296Z" stroke="black" stroke-width="2" mask="url(#path-1-outside-1_17_2)"/>
<path d="M1020.68 42.7497H1026.08V19.0916H1020.68V16.4242H1037.36C1040.8 16.4242 1043.51 17.0814 1045.46 18.3957C1047.46 19.7101 1048.46 21.5463 1048.46 23.9044C1048.46 25.5666 1047.95 26.9583 1046.93 28.0793C1045.95 29.2004 1044.5 30.0315 1042.59 30.5727V30.9207C1044.86 31.3845 1046.6 32.2157 1047.81 33.414C1049.03 34.5738 1049.63 36.0621 1049.63 37.8789C1049.63 40.237 1048.63 42.0926 1046.64 43.4456C1044.64 44.7599 1041.84 45.4171 1038.24 45.4171H1020.68V42.7497ZM1038.18 42.8657C1040.41 42.8657 1042.14 42.4018 1043.35 41.4741C1044.6 40.5076 1045.23 39.1546 1045.23 37.4151C1045.23 35.7528 1044.58 34.4578 1043.29 33.53C1042.04 32.6022 1040.28 32.1384 1038.01 32.1384H1030.37V42.8657H1038.18ZM1036.95 29.645C1039.18 29.645 1040.92 29.2004 1042.17 28.3113C1043.47 27.3835 1044.11 26.0692 1044.11 24.3683C1044.11 22.6673 1043.51 21.353 1042.29 20.4252C1041.12 19.4588 1039.43 18.9756 1037.24 18.9756H1030.37V29.645H1036.95Z" stroke="black" stroke-width="2" mask="url(#path-1-outside-1_17_2)"/>
<path d="M1072.99 45.9969C1070.01 45.9969 1067.33 45.3398 1064.94 44.0254C1062.55 42.7111 1060.67 40.9135 1059.3 38.6328C1057.93 36.3133 1057.25 33.7426 1057.25 30.9207C1057.25 28.06 1057.93 25.4893 1059.3 23.2085C1060.67 20.9278 1062.55 19.1302 1064.94 17.8159C1067.33 16.5015 1070.01 15.8444 1072.99 15.8444C1076 15.8444 1078.7 16.5015 1081.09 17.8159C1083.48 19.1302 1085.36 20.9471 1086.73 23.2665C1088.1 25.5473 1088.78 28.0987 1088.78 30.9207C1088.78 33.7426 1088.1 36.3133 1086.73 38.6328C1085.36 40.9135 1083.46 42.7111 1081.03 44.0254C1078.64 45.3398 1075.96 45.9969 1072.99 45.9969ZM1072.99 43.3296C1075.14 43.3296 1077.08 42.8271 1078.8 41.822C1080.52 40.7782 1081.85 39.3093 1082.79 37.4151C1083.73 35.5209 1084.2 33.3561 1084.2 30.9207C1084.2 28.4852 1083.73 26.3204 1082.79 24.4262C1081.85 22.532 1080.52 21.0631 1078.8 20.0193C1077.08 18.9756 1075.14 18.4537 1072.99 18.4537C1070.83 18.4537 1068.9 18.9756 1067.17 20.0193C1065.49 21.0631 1064.16 22.532 1063.18 24.4262C1062.24 26.3204 1061.77 28.4852 1061.77 30.9207C1061.77 33.3561 1062.24 35.5209 1063.18 37.4151C1064.16 39.3093 1065.49 40.7782 1067.17 41.822C1068.9 42.8271 1070.83 43.3296 1072.99 43.3296Z" stroke="black" stroke-width="2" mask="url(#path-1-outside-1_17_2)"/>
<path d="M1099.7 19.0916H1094.83V16.4242H1109.39V19.0916H1103.99V39.0966L1121.37 16.4242H1130.24V19.0916H1124.84V42.7497H1130.24V45.4171H1114.62V43.0397H1120.55V21.6429L1101.99 46.1129H1099.7V19.0916ZM1112.56 12.3652C1110.49 12.3652 1108.65 11.9593 1107.04 11.1475C1105.48 10.297 1104.24 9.13733 1103.34 7.66836C1102.48 6.16073 1102.05 4.42116 1102.05 2.44964V1.92777H1104.58V2.39166C1104.58 4.40183 1105.28 5.96745 1106.69 7.08851C1108.1 8.17091 1110.06 8.71211 1112.56 8.71211C1115.11 8.71211 1117.08 8.15158 1118.49 7.03052C1119.9 5.90946 1120.61 4.36317 1120.61 2.39166V1.92777H1123.07V2.44964C1123.07 4.42116 1122.62 6.16073 1121.72 7.66836C1120.86 9.13733 1119.63 10.297 1118.02 11.1475C1116.46 11.9593 1114.64 12.3652 1112.56 12.3652Z" stroke="black" stroke-width="2" mask="url(#path-1-outside-1_17_2)"/>
<path d="M1151.65 42.7497H1157.06V19.0916H1151.65V16.4242H1187.59V19.0916H1182.19V42.7497H1187.59V45.4171H1172.15V42.7497H1177.85V19.0336H1161.34V42.7497H1167.04V45.4171H1151.65V42.7497Z" stroke="black" stroke-width="2" mask="url(#path-1-outside-1_17_2)"/>
<path d="M1218.8 42.6338C1217.94 43.4069 1216.77 44.1221 1215.28 44.7792C1214.3 45.1658 1213.26 45.4557 1212.17 45.649C1211.07 45.881 1209.94 45.9969 1208.76 45.9969C1205.9 45.9969 1203.32 45.3784 1201.01 44.1414C1198.74 42.9044 1196.94 41.1455 1195.61 38.8647C1194.32 36.5839 1193.67 33.9552 1193.67 30.9786C1193.67 28.0793 1194.32 25.4893 1195.61 23.2085C1196.94 20.8891 1198.74 19.0916 1201.01 17.8159C1203.28 16.5015 1205.83 15.8444 1208.64 15.8444C1211.54 15.8444 1214.11 16.4822 1216.34 17.7579C1218.61 19.0336 1220.37 20.8118 1221.62 23.0926C1222.87 25.3733 1223.5 27.9827 1223.5 30.9207C1223.5 31.1139 1223.5 31.3266 1223.5 31.5585C1223.5 31.7518 1223.5 31.9644 1223.5 32.1963H1198.13C1198.25 34.4385 1198.8 36.4293 1199.78 38.1689C1200.76 39.8698 1202.03 41.2035 1203.59 42.1699C1205.16 43.0977 1206.92 43.5615 1208.88 43.5615C1210.41 43.5615 1211.91 43.233 1213.4 42.5758C1214.93 41.88 1216.16 41.0102 1217.1 39.9664C1218.08 38.9227 1218.57 37.8983 1218.57 36.8932V35.7335H1221.45V46.5188H1218.8V42.6338ZM1218.92 29.7029C1218.8 27.3835 1218.29 25.3733 1217.39 23.6724C1216.49 21.9329 1215.28 20.6185 1213.75 19.7294C1212.27 18.8016 1210.54 18.3377 1208.59 18.3377C1206.67 18.3377 1204.94 18.821 1203.42 19.7874C1201.89 20.7538 1200.66 22.1068 1199.72 23.8464C1198.78 25.5473 1198.25 27.4995 1198.13 29.7029H1218.92Z" stroke="black" stroke-width="2" mask="url(#path-1-outside-1_17_2)"/>
<path d="M1243.84 42.9237H1250.94V33.472H1242.61C1238.96 33.472 1236.17 32.6989 1234.21 31.1526C1232.29 29.6063 1231.33 27.4608 1231.33 24.7162V19.0916H1225.93V16.4242H1235.56V24.8321C1235.56 26.8037 1236.19 28.3113 1237.44 29.355C1238.69 30.3988 1240.51 30.9207 1242.9 30.9207H1250.94V18.9176H1244.78V16.4242H1260.63V19.0916H1255.23V42.7497H1260.63V45.4171H1243.84V42.9237Z" stroke="black" stroke-width="2" mask="url(#path-1-outside-1_17_2)"/>
<path d="M1275.65 46.0549C1272.68 46.0549 1270.37 45.3591 1268.72 43.9674C1267.08 42.5371 1266.26 40.6623 1266.26 38.3428C1266.26 35.2889 1267.57 33.1048 1270.19 31.7904C1272.81 30.4761 1276.24 29.6836 1280.47 29.413C1282.27 29.297 1283.76 29.1038 1284.93 28.8332C1286.14 28.5626 1287.06 28.176 1287.69 27.6734C1288.36 27.1709 1288.69 26.5331 1288.69 25.7599C1288.69 23.4405 1287.96 21.6043 1286.52 20.2513C1285.11 18.8983 1283.27 18.2218 1281 18.2218C1279.7 18.2218 1278.33 18.531 1276.88 19.1495C1275.48 19.7681 1274.26 20.5799 1273.24 21.5849C1272.27 22.59 1271.78 23.6531 1271.78 24.7742V26.8616H1269.19V14.5107H1271.78V18.9176C1272.21 18.4924 1272.72 18.1251 1273.3 17.8159C1274.71 17.1587 1276.02 16.6755 1277.24 16.3662C1278.49 16.0183 1279.8 15.8444 1281.17 15.8444C1284.81 15.8444 1287.69 16.8881 1289.8 18.9756C1291.92 21.0631 1292.98 23.885 1292.98 27.4415V42.7497H1297.91V45.4171H1288.86V38.5168C1287.85 40.8362 1286.14 42.6724 1283.76 44.0254C1281.37 45.3784 1278.67 46.0549 1275.65 46.0549ZM1277.12 43.3876C1279.27 43.3876 1281.25 42.9044 1283.05 41.9379C1284.85 40.9329 1286.26 39.5992 1287.28 37.9369C1288.3 36.236 1288.81 34.3805 1288.81 32.3703V29.413C1288.26 29.9542 1287.4 30.3794 1286.22 30.6887C1285.09 30.998 1283.58 31.2492 1281.7 31.4425C1277.86 31.7518 1275.06 32.4283 1273.3 33.472C1271.54 34.5158 1270.66 36.0427 1270.66 38.0529C1270.66 39.7538 1271.25 41.0682 1272.42 41.9959C1273.6 42.9237 1275.16 43.3876 1277.12 43.3876Z" stroke="black" stroke-width="2" mask="url(#path-1-outside-1_17_2)"/>
<path d="M1308.23 42.7497H1314.99V19.0916H1306.88C1306.65 19.0916 1306.39 19.2075 1306.12 19.4395C1305.88 19.6328 1305.67 19.884 1305.47 20.1933C1305.28 20.4639 1305.18 20.7345 1305.18 21.0051V27.3835H1302.48V13.4669H1305.12V16.4242H1329.14V13.4669H1331.78V27.3835H1329.08V21.0051C1329.08 20.7345 1328.98 20.4639 1328.79 20.1933C1328.59 19.884 1328.36 19.6328 1328.08 19.4395C1327.85 19.2075 1327.61 19.0916 1327.38 19.0916H1319.27L1319.33 42.7497H1326.09V45.4171H1308.23V42.7497Z" stroke="black" stroke-width="2" mask="url(#path-1-outside-1_17_2)"/>
<path d="M1341.46 19.0916H1336.59V16.4242H1351.15V19.0916H1345.75V39.0966L1363.13 16.4242H1372V19.0916H1366.6V42.7497H1372V45.4171H1356.38V43.0397H1362.31V21.6429L1343.75 46.1129H1341.46V19.0916Z" stroke="black" stroke-width="2" mask="url(#path-1-outside-1_17_2)"/>
</svg>
