<svg width="22" height="22" viewBox="0 0 22 22" fill="none" xmlns="http://www.w3.org/2000/svg">
<path d="M11 0C4.92339 0 0 4.92339 0 11C0 17.0766 4.92339 22 11 22C17.0766 22 22 17.0766 22 11C22 4.92339 17.0766 0 11 0ZM16.1008 7.48266C15.9367 9.22137 15.2181 13.444 14.8544 15.3911C14.6992 16.2161 14.3976 16.4911 14.1048 16.5177C13.4661 16.5754 12.9827 16.0964 12.3617 15.6883C11.3948 15.054 10.8448 14.6593 9.90887 14.0383C8.82218 13.3242 9.52742 12.9294 10.144 12.2863C10.3081 12.1177 13.1202 9.55847 13.1734 9.32782C13.1823 9.29677 13.1867 9.19032 13.1202 9.13266C13.0536 9.075 12.9605 9.09718 12.894 9.11048C12.7964 9.13118 11.2499 10.1528 8.25444 12.1754C7.8168 12.477 7.41909 12.6234 7.06129 12.6145C6.66653 12.6056 5.9125 12.3927 5.34919 12.2109C4.66169 11.9891 4.11169 11.8694 4.16048 11.4879C4.18414 11.2898 4.45766 11.0872 4.98105 10.8802C8.18643 9.48454 10.3243 8.56344 11.3948 8.11694C14.4508 6.84839 15.0851 6.62661 15.4976 6.61774C15.5907 6.61774 15.7903 6.63992 15.9234 6.74637C16.0102 6.82272 16.0656 6.92865 16.0786 7.04355C16.1026 7.18861 16.1101 7.33592 16.1008 7.48266Z" fill="#FEF2E8"/>
</svg>
